<svg xmlns="http://www.w3.org/2000/svg" viewBox="0 0 1234.386 1354.336"><defs><style>.cls-1{stroke:#000;stroke-miterlimit:10;}.cls-2{fill:#fbba16;}</style></defs><title>Rammstein Europe Stadium Tour Bühne Shirt Vector</title><g id="Ebene_2" data-name="Ebene 2"><polygon class="cls-1" points="101.872 0.5 1196.539 0.5 1233.872 1347.167 0.539 1353.833 101.872 0.5"/></g><g id="Layer_1" data-name="Layer 1"><path class="cls-2" d="M422.16,510.74c7.48-.81,14.92-1.94,22.41-2.67,4.64,10.7,9.8,21.18,14.45,31.88-6.07,24.25-12.44,48.45-18.58,72.69a25.429,25.429,0,0,0-.41,5.38c.06,11.53.01,23.06.04,34.59q38.85-.015,77.7,0c.01-10.54-.01-21.08.02-31.62.11-3.78-1.04-7.41-1.86-11.05q-7.665-33.06-15.29-66.13c-1-2.67.65-5.16,1.54-7.59,3.81-9.37,7.63-18.74,11.31-28.16,7.47-.13,14.94-.04,22.4-.06q-.315,143.205-.68,286.41,2.985.015,5.98.04.015-49.1,0-98.18c4.59-5.39,9.17-10.78,13.8-16.13q.015,48.345,0,96.68-4.92,4.2-9.82,8.42-.42,114.36-.94,228.71c3.52,4.03,6.61,8.46,10.64,12.02q0,3.39-.04,6.8c6.2.01,12.4,0,18.6.01.02-12.1,0-24.2.01-36.3q-7.485-.03-14.97-.01c-.03,9.66.05,19.31-.04,28.97-1.39-.41-2.89-.72-3.75-1.98-2.71-3.09-5.32-6.25-8.02-9.33.07-75.92-.1-151.84.08-227.75,3.9-3.03,7.65-6.23,11.51-9.3.49,41.31.08,82.63.22,123.95q0,45.705.01,91.41c4.98-.01,9.97,0,14.96,0q0-18.12-.01-36.22c-2.52-.01-5.03,0-7.53.01q-.015,13.35,0,26.72c-2.23-4.2-6.78-7.74-6.16-12.93q.12-92.445.04-184.9,2.9-3.66,5.73-7.37c.76,20.07.22,40.17.38,60.25q0,56.97.01,113.94,3.765-.015,7.55-.01c-.03-5.89.02-11.77-.04-17.65-1.52,2.56-2.98,5.16-4.46,7.74.02-32.34.37-64.67.39-97.01.39-22.87-.11-45.75.63-68.61,2.51,2.67,5.01,5.37,7.5,8.07q.285,66.39.68,132.8c5.4,0,10.81-.03,16.22.03,10.3-10.7,24.23-19.56,39.61-18.92,13.3.53,24.69,9,32.92,18.88,1.34-.01,2.69,0,4.04.01,2.5-2.47,4.31-6.24,8.16-6.69.03,2.76.04,5.54.06,8.33l.94-.01c-.01-1.64,0-3.28.01-4.9,1.44-.01,2.89-.01,4.36,0,0,5.29-.01,10.59,0,15.9-1.52-.02-3.03-.02-4.53-.01-.01-1.82-.02-3.65-.01-5.45l-1.28.06c.01,2.19.05,4.4.09,6.61-.74.01-2.2.04-2.94.05,0,7.54-.01,15.07.01,22.62,1.37-.01,2.74-.01,4.12,0q.015-10.755.01-21.48c1.5-.08,3.01-.14,4.53-.19-.04,14.43-.12,28.86-.07,43.3-1.49-.02-2.98-.03-4.46-.02V957.73q-2.085-.015-4.14,0V993.2c1.37-.02,2.75-.02,4.14-.01v-15.4c1.48-.03,2.96-.04,4.46-.04q-.015,19.14-.01,38.28c-1.49-.03-2.97-.04-4.45-.04V998q-2.085-.015-4.14,0,0,17.385.01,34.77c1.36-.01,2.74-.01,4.12.01q.015-7.065.01-14.11c1.48-.02,2.97-.02,4.46-.02.17,13.74-.34,27.5.2,41.23a5.819,5.819,0,0,0,1.03-3.83q-.075-71.04-.02-142.08c2.26-.04,4.54-.07,6.82-.11.02,1.85.03,3.7.06,5.58q4.245-.015,8.51,0,3.435-4.425,6.87-8.84l15.06,4.56c-1.12,1.38-2.25,2.75-3.36,4.15,6.46.05,12.91.22,19.37.23v-3.73a10.287,10.287,0,0,1-10.95-5.94c2.08-4.06,7.81-2.6,11.58-2.94-.03-1.99-.05-3.98-.05-5.95-3.2-.04-6.62-.1-9.2-2.26-1.31-.91-3.64-2.79-2.1-4.44,3.09-2.68,7.48-2.45,11.31-2.41q-.015-3,0-5.97c-4.65.5-9.84-1.56-11.98-5.88,2.38-3.97,8.03-2.88,11.99-3.21-.01-2.04-.02-4.06-.01-6.08-4.55.52-11.4-1.54-11.81-6.7,3.37-2.56,7.85-2.07,11.82-2.12-.01-1.8-.02-3.6-.01-5.39a10.862,10.862,0,0,1-10.73-4.29,2.1,2.1,0,0,1,.16-3.26c3.42-2.28,7.75-1.61,11.64-1.65-.01-2.07,0-4.13,0-6.19,5.53-.1,11.06-.17,16.6-.13q-.015-12.825-.01-25.63c-10.95-3.02-20.85-10.28-26.2-20.4-6.79-12.84-7.02-28.57-1.87-42.02,3.3-9.01,9.61-17.16,18.31-21.49a44,44,0,0,1,31.51-2.7c11.64,3.03,22.71,10.07,28.56,20.84,7.43,13.82,7.28,31.22.31,45.18-5.37,11.24-16.43,18.93-28.47,21.47-.23,8.3-.01,16.62-.22,24.93,7.18.17,14.36.01,21.55.17-.04,55.55-.19,111.1-.09,166.65a47.394,47.394,0,0,1-.67,8.06c-7.01-.01-14.03.02-21.04-.02-.09.85-.16,1.72-.22,2.59,1.15-.07,2.32-.12,3.49-.17q-.075,18.45-.36,36.88c-3.92-.02-7.83-.02-11.74.02-.1-11.44,0-22.89-.05-34.33-1.53.01-3.05.04-4.55.09.06,11.4.01,22.81.03,34.21h-11.8q-.015-8.715,0-17.42c-1.85-.02-3.7-.03-5.53-.02q0,12.75,0,25.52-66.06-1.9-132.14-3.7v1.91c45.88,1.28,91.77,2.75,137.66,3.84,0-2.5,0-4.98.01-7.46q5.9-.015,11.8,0,0,15.36-.01,30.73c-3.94,0-7.88,0-11.82-.05.05-6.82,0-13.63.03-20.43-9.44-.28-18.89-.48-28.33-.79q-.015,14.49,0,28.99c2.17-.02,4.36-.02,6.55-.02q.015,11.82,0,23.63H221.94c0-7.52.08-15.03.08-22.54q3.375,0,6.76.01-.015-15.165-.01-30.3c-9.98-.02-19.96.01-29.94-.02-.06,6.39-.01,12.79-.03,19.2-3.71-.02-7.42-.02-11.13-.02q0-14.9,0-29.78c3.71-.01,7.42-.01,11.13-.02,0,3.25-.02,6.51-.03,9.77q70.23-2.13,140.44-4.44c1.6.27.82-1.96,1.24-2.85q-68.835,2.28-137.67,4.59-.015-13.935,0-27.85c-1.33-.02-2.65-.02-3.98-.01v17.87c-3.71-.01-7.43-.01-11.14-.02-.02-11.64.07-23.27-.05-34.9-1.54.02-3.08.04-4.61.08-.01,11.61.01,23.23-.01,34.84q-6.51-.015-13.03,0c-.05-11.82-.01-23.65-.02-35.47,1.35-.01,2.7-.02,4.06-.01v-4.39c-6.27.04-12.54-.09-18.8-.07q-.21-87.585-.34-175.17,9.57-.21,19.14-.37c-.18-7.74.31-15.49-.02-23.22-3.46-1.91-7.74-2.57-11.2-4.75-14.21-7.44-22.34-23.55-22.52-39.26.54-10.72,3.72-21.62,10.53-30.08C159,730.6,172,724.81,184.98,724.04c13.63.3,27.78,5.62,36.31,16.64,9.69,12.54,13.1,30.19,7.49,45.17-5.43,14.29-18.73,24.1-32.78,29.04v23.22c5.82.05,11.64-.15,17.46-.12q.015,3.165.01,6.34c4.15.95,8.76,1.23,12.24,3.93.79,1.68-1.08,2.5-2.26,3.2-3.15,1.54-6.62,2.25-9.99,3.12,0,1.85.01,3.72.02,5.6,4.09.74,8.45.99,12.15,3.08.09.38.26,1.13.35,1.51-3.67,2.57-8.24,3.13-12.49,4.15q-.015,3.27-.04,6.56c3.75.7,7.73.93,11.14,2.8.13.38.4,1.13.53,1.5-3.4,2.5-7.69,3.1-11.67,4.16q.015,3.075.03,6.17c3.7.52,7.72.4,11.02,2.38,1.13,1.53-.91,2.26-1.94,3a50.328,50.328,0,0,1-9.06,3.37c-.03,2-.04,4.01-.06,6.02,3.78.86,7.89,1.18,11.21,3.39l.36,1.48c-3.27,2.69-7.63,3.23-11.58,4.33.02,1.29.05,2.61.07,3.93,7.79-.02,15.58,0,23.38-.02-.87-1.47-1.74-2.94-2.6-4.39,4.91-1.23,9.84-2.41,14.77-3.61q3.4,3.99,6.79,8.01c1.67-.01,3.35-.01,5.03,0-.01-1.46-.01-2.9,0-4.33,1.81-.01,3.64-.02,5.46,0q.03,72.975.02,145.95l2.29.01c.06-14.01.01-28.02.03-42.02.83,0,2.5,0,3.33-.01,0,5-.01,10.01.01,15.02,1.75-.02,3.51-.03,5.27-.03q-.015-18.435-.01-36.86c-2.87-.01-5.73-.01-8.6,0q-.015-9.54,0-19.06H272q0,7.485.01,15c1.75-.01,3.5-.02,5.26,0l-.33-35.94c-1.65-.02-3.3-.02-4.94,0-.01,6.28.02,12.57-.02,18.86-1.11-.03-2.22-.05-3.32-.06q.015-21.765.01-43.53H272c.01,7.51-.02,15.03.01,22.55,1.75-.03,3.51-.03,5.26-.03-.11-8.27.22-16.54-.13-24.8-1.31-2.74-3.4-5.01-5.14-7.47v7.81h-3.33q-.015-7.83,0-15.65c.92.03,2.75.1,3.66.14,0,1.88,0,3.76.01,5.66.61-.01,1.83-.02,2.44-.03q-.015-4.545-.01-9.07c2.11-.01,4.23-.01,6.34-.01q2.85,3.48,5.69,6.97c8.92-9.83,20.51-18.69,34.24-19.51,15.13-1.02,28.94,8.02,38.31,19.21h19.26q.135-66.93.05-133.86c1.7-1.97,3.42-3.93,5.14-5.88.01,54.2.34,108.4.23,162.61-1.31-2.41-2.64-4.81-4.07-7.13-.32,6.47-.1,12.95-.15,19.43q4.35-.015,8.71,0,.03-81.48,0-162.97c.11-4.33.99-8.61.84-12.95,2.08,3.44,5.81,6.48,5.21,10.92-.05,62.03.04,124.07-.05,186.1-.77,3.91-4.09,6.79-5.99,10.22-.01-9.02.01-18.04-.01-27.06-2.9.01-5.79.05-8.69.12-.08,11.76.02,23.53-.06,35.29,5.72.1,11.44.04,17.16.06q-.045-107.595.07-215.19c3.46,2.86,6.89,5.74,10.33,8.62q.015,114.465,0,228.93-5.16,4.455-10.33,8.93-.015-13.62,0-27.23c-5.73-.01-11.47-.01-17.19,0-.03,11.94.02,23.88-.03,35.83,6.4.09,12.8.02,19.2.05.01-2.09.03-4.18.07-6.25,3.21-3.62,6.55-7.13,9.58-10.9a4.58,4.58,0,0,0,.99-3.44q-.06-113.25-.03-226.51-5.34-4.275-10.65-8.56.015-48.435.01-96.87c4.97,6,9.88,12.05,14.85,18.06q.135,48.885.27,97.77,3.42-.135,6.85-.24C421.44,700.03,421.66,605.38,422.16,510.74Zm16.37,1.9c3.81,9.2,7.56,18.42,11.39,27.61q-8.3,32.37-16.68,64.7c-.9,3.65-2.24,7.27-2.12,11.08.03,12.08.01,24.16.02,36.24,1.65-.01,3.3-.01,4.96,0,0-10.76.02-21.52-.01-32.28.02-3.3-.21-6.65.6-9.87,5.41-22.43,10.65-44.9,16.08-67.33.21-1.52,1.03-3.13.27-4.61-3.63-9.03-7.44-18-11.13-27.01C440.78,511.66,439.65,512.14,438.53,512.64Zm65.25,28.35q8.43,35.445,16.84,70.91a25.927,25.927,0,0,1,.63,6.09c-.05,11.43-.01,22.85-.03,34.28,1.57-.01,3.14-.01,4.72,0,.01-10.43-.02-20.86.01-31.29-.02-3.02.18-6.08-.48-9.04q-8.61-35.6-17.14-71.18,5.49-13.71,10.94-27.44c-1.29-.72-2.57-1.43-3.84-2.14Q509.58,526.075,503.78,540.99Zm11.01,117.47q.045,68.265.01,136.54h3.31q-.03-68.325-.04-136.66C516.97,658.37,515.88,658.42,514.79,658.46Zm6.6-.06q0,68.295,0,136.59c1.51,0,3.02,0,4.55.01q-.015-68.31-.01-136.61C524.41,658.38,522.9,658.39,521.39,658.4Zm-90.26,0q.015,68.295,0,136.59c1.27,0,2.54,0,3.81.01q0-68.295,0-136.6C433.67,658.39,432.39,658.39,431.13,658.4Zm7.43,0V795h2.88V658.4Zm41.59,24.07c-.01,1.09-.02,2.19-.02,3.3q4.83,0,9.68.01-.015,6.99-.01,13.99,7.11,0,14.21.02-.015,4.9-.01,9.81h3.27V696.47q-7.035-.015-14.07,0-.015-6.99.02-13.96C488.86,682.45,484.5,682.45,480.15,682.47Zm-17.26,0v9.8h3.3c0-2.17,0-4.34.01-6.49q5.385-.015,10.79,0c.01-.83.01-2.48.01-3.31Q469.95,682.455,462.89,682.47ZM449.9,695.33q-.015,7.095-.01,14.2h3.39c-.02-3.64-.02-7.28.04-10.91,8.22.28,16.45.11,24.68.16.02,3.74-.05,7.49-.02,11.24-.18,4.52,2.76,8.29,4.28,12.37q-4.785,0-9.54.01-2.19-4.875-4.37-9.74c-1.82-.01-3.63,0-5.44.01q-.12,4.86-.13,9.73-4.755-.015-9.5,0-.015-4.875-.01-9.73h-3.38v13.1h16.29c.01-2.78.02-5.55.09-8.32,1.04,2.77,2.06,5.54,3.09,8.32,5.49,0,10.99.03,16.49-.02.22-5.03-3.43-8.94-4.43-13.64-.26-5.59,0-11.18-.08-16.77C470.86,695.32,460.38,695.34,449.9,695.33Zm54.09,17.4c.02,3.19.06,6.39.08,9.6h-14q-.015,7.11-.01,14.24c-3.31-.06-6.61-.11-9.91-.12-.01,1.1-.02,2.21-.02,3.32q6.57,0,13.14.01,0-7,.01-14.01c4.66.01,9.33,0,13.99,0V712.73ZM462.8,739.77q7.095,0,14.19.01c0-.83.01-2.48.01-3.31q-5.355-.015-10.7,0-.045-3.795-.11-7.58c-.85,0-2.54,0-3.39.01ZM162.15,737.2c-9.68,7.42-14.91,19.25-17.07,30.99,2.58,0,5.17,0,7.75.01.7-5.56,2.23-11.13,5.46-15.78,5.81-8.65,15.56-13.91,25.53-16.21.02-2.04.03-4.06.03-6.09C176.14,730.32,168.3,732.38,162.15,737.2Zm25.53-7.67q-.015,3.36-.02,6.74c6.15.41,12.42,1.96,17.32,5.87,8,6.19,11.74,16.3,12.94,26.05q3.825,0,7.65.01c-.83-8.27-3.29-16.59-8.52-23.17C210.03,735.95,198.89,730.89,187.68,729.53ZM742.6,740.59c-8.12,7.06-12.6,17.58-13.54,28.17,2.44.01,4.89.01,7.35.02.71-6.58,2.66-13.22,6.98-18.37,5.67-7.05,14.49-10.77,23.29-11.94-.02-2.7-.02-5.4-.02-8.09C757.95,731.63,749.25,734.67,742.6,740.59Zm27.88-10.21c-.02,2.66-.02,5.32-.02,7.98,8.98,1.38,18,5.2,23.76,12.47,4.35,5.28,6.12,12.13,6.56,18.84q3.255-.015,6.54-.02a32.962,32.962,0,0,0-7.43-23.57C792.56,737.25,781.41,732.81,770.48,730.38ZM168.92,745.85c-7.1,5.3-11.1,13.77-12.62,22.34q4.065,0,8.13.01c.8-3.76,1.73-7.6,3.96-10.8,3.4-5.33,9.4-8.32,15.49-9.37-.01-2.69-.02-5.38-.05-8.07C178.53,740.85,173.22,742.49,168.92,745.85Zm18.77-5.89c-.03,2.82-.03,5.65-.03,8.48,3.41,1,6.89,2.11,9.8,4.23,5.22,3.5,8.21,9.44,9.21,15.53q3.615-.015,7.21-.01c-.63-4.48-1.69-8.99-4.16-12.84C204.9,747.41,196.42,742.48,187.69,739.96Zm559.9,10.61c-4.91,4.73-7.17,11.51-7.66,18.18,2.85.02,5.71.02,8.58.04.62-3.4,1.42-6.92,3.68-9.65,3.47-4.59,9.03-6.88,14.47-8.16q0-4.215-.01-8.43C759.72,743.32,752.58,745.46,747.59,750.57Zm22.87.38c3.5.69,7.1,1.48,10.11,3.53,5.27,3.32,8.21,9.22,9.44,15.18q3.63,0,7.27.01c-.79-5.12-2.38-10.21-5.54-14.37-5.02-6.91-13.06-10.97-21.24-12.8C770.46,745.31,770.46,748.13,770.46,750.95ZM174,757.02c-3.48,2.65-4.85,7.01-5.56,11.16q4.65.03,9.29.01c.26-3.52,2.93-5.76,6.16-6.59-.02-2.58-.03-5.16-.06-7.73C180.4,754.25,176.73,754.69,174,757.02Zm13.69-2.98q-.045,3.87,0,7.76a6.39,6.39,0,0,1,5.05,6.4q4.62,0,9.25-.03c-.75-3.26-1.62-6.7-4.07-9.13C195.3,756.09,191.41,754.89,187.69,754.04Zm570.64,4.18c-3.6,2.38-5.3,6.53-6.49,10.51,3.2.05,6.41.04,9.62.05a7.622,7.622,0,0,1,5.19-5.05c.01-2.67.02-5.34.01-8C763.78,756.1,760.71,756.38,758.33,758.22Zm12.12,5.37a8.363,8.363,0,0,1,5.11,6.09c3.17-.02,6.35-.01,9.53-.06-.46-3.04-.91-6.31-3.08-8.65-2.81-3.44-7.32-4.61-11.51-5.28C770.46,758.32,770.46,760.95,770.45,763.59Zm-588.04,2.78c-2.01,1.92-2.09,6.27,1,7.16a3.768,3.768,0,0,0,5.05-3.61C189.6,766.58,184.77,763.85,182.41,766.37Zm583.92,2.11c-3.33,2.08-1.49,8.49,2.71,7.82,3.05-.02,3.99-3.83,3.1-6.2C771.3,767.84,768.23,767.43,766.33,768.48Zm-621.27,3.76c1.08,11.07,5.46,22.27,14.09,29.62,6.78,5.95,15.83,8.53,24.69,9.11q.015-3.24.03-6.47c-9.25-1.4-18.41-5.66-24.17-13.23-4.3-5.43-6.29-12.27-7.07-19.06C150.11,772.22,147.58,772.22,145.06,772.24Zm11.25,0c1.49,7.51,4.45,14.99,9.97,20.46,4.59,4.76,11.08,7.12,17.57,7.63.02-3.09.01-6.18.01-9.25-4.07-.68-8.22-1.76-11.5-4.39-4.6-3.35-6.67-8.99-7.35-14.45Q160.66,772.21,156.31,772.24Zm12.14.05c1.24,4.12,2.73,8.44,6.04,11.39,2.45,2.45,6.02,2.92,9.33,2.96.05-3.03.04-6.06.06-9.09a7.079,7.079,0,0,1-5.91-5.28C174.79,772.2,171.62,772.2,168.45,772.29Zm24.29-.05a6.944,6.944,0,0,1-5.06,4.68c-.02,3.22-.03,6.44.02,9.67,6.91-1.87,12.72-7.21,14.29-14.32C198.9,772.21,195.82,772.21,192.74,772.24Zm13.84-.02c-1.67,9.49-9.09,17.82-18.92,18.98,0,2.88,0,5.77.03,8.67,12.7-3.82,24.42-13.88,26.2-27.61C211.45,772.22,209.02,772.22,206.58,772.22Zm11.12,0c-.56,8.1-3.7,16.16-9.59,21.87-5.47,5.53-12.94,8.49-20.45,10.02,0,2.29.01,4.58.02,6.89,11.29-2.14,22.08-8.02,29.05-17.28,4.81-6.22,7.5-13.8,8.84-21.48C222.94,772.22,220.32,772.22,217.7,772.22Zm511.34,2.13a39.042,39.042,0,0,0,8.19,22.49c7.12,9.14,18.3,13.97,29.42,16.09.01-2.83.01-5.66.04-8.49-7.2-.07-14.58-2.18-19.92-7.17-6.5-5.83-9.36-14.52-10.57-22.93Q732.6,774.325,729.04,774.35Zm10.93,0c1.43,7.31,4.3,14.64,9.81,19.84,4.46,4.42,10.71,6.39,16.86,6.73.02-2.69.02-5.36,0-8.03-4.23-1.15-8.48-2.69-11.82-5.62-3.95-3.13-5.82-8.06-6.32-12.95C745.65,774.33,742.81,774.33,739.97,774.35Zm12.37.01c.9,3.99,2.26,8.16,5.54,10.85,2.38,2.17,5.67,2.73,8.73,3.29.05-2.75.05-5.49.06-8.22a6.584,6.584,0,0,1-5.43-5.95C758.27,774.33,755.3,774.32,752.34,774.36Zm24.73-.01c-.63,3.41-3.33,5.47-6.61,6.1,0,2.67,0,5.34.04,8.03,3.09-.5,6.43-.93,8.87-3.12,3.4-2.67,4.75-6.95,5.71-10.99Q781.06,774.31,777.07,774.35Zm12.92-.04c-.95,5.37-2.79,10.96-7.16,14.52-3.41,2.97-7.97,3.98-12.36,4.23q-.015,3.9.01,7.83c6.34-.5,12.85-2.3,17.63-6.71,5.68-4.98,8.35-12.46,9.25-19.79C794.9,774.35,792.44,774.33,789.99,774.31Zm10.9.03c-1.03,8.71-4.41,17.61-11.35,23.3-5.28,4.48-12.29,6.14-19.07,6.38q-.015,4.47.01,8.95c11.22-1.89,22.45-6.83,29.69-15.89,5.2-6.38,7.55-14.61,7.9-22.74Q804.47,774.325,800.89,774.34ZM414.23,799.31q.015,129.075.03,258.15c2.64-.03,5.29-.03,7.93-.03q.06-129.015.04-258.03C419.56,799.35,416.89,799.33,414.23,799.31Zm23.84-.16q-.21,129.6-.05,259.21l.28-.4c12.49.08,24.99.02,37.48.04-.05-86.25.34-172.49.11-258.73l.13-.22C463.37,799.17,450.71,798.98,438.07,799.15Zm42.26.18q0,129.33,0,258.66,18.72.03,37.45,0,.225-129.33.28-258.67C505.48,799.36,492.91,799.32,480.33,799.33Zm41.07.01q-1.02,129.33-2.27,258.66c1.82-.02,3.65-.02,5.48-.01.35-86.22.96-172.44,1.32-258.66C524.41,799.32,522.9,799.32,521.4,799.34Zm13.56-.06c-.27,86.24-.16,172.48-.29,258.72q3.285-.015,6.6,0,.03-129.3.03-258.6C539.19,799.35,537.07,799.31,534.96,799.28Zm-103.83.07q-.285,129.315-.67,258.63c1.49,0,2.98,0,4.48.03V799.33C433.66,799.33,432.39,799.33,431.13,799.35ZM160.22,841.73q.015,85.02.01,170.04,10.815,0,21.63.01.015-85.035,0-170.05Q171.045,841.715,160.22,841.73Zm28.59,0q-.015,85.02,0,170.05,10.815-.015,21.62,0,.03-85.02.01-170.05Q199.625,841.715,188.81,841.73Zm554.85,1.75q.015,85.02,0,170.04,10.815.015,21.61,0,0-85.02.01-170.04Q754.465,843.45,743.66,843.48Zm28.68-.01q0,85.035,0,170.07c7.18-.02,14.35,0,21.53-.02q-.03-85.02-.01-170.05ZM309.01,909.92c-9.45,6.3-15.33,16.77-18.09,27.59,1.98,0,3.96.02,5.95.04,2.24-5.61,5.01-11.13,9.17-15.57a34.638,34.638,0,0,1,20.9-11.16c.35-2.35.7-4.68,1.05-7.02C321.3,904.29,314.59,906.1,309.01,909.92Zm24.04-5.45c-.35,2.2-.69,4.43-1.04,6.65,5.64,2.21,11.12,5.17,15.27,9.66a22.922,22.922,0,0,1,6.24,16.43c1.91-.02,3.83-.03,5.75-.02-.18-8.04-2.68-16.21-8.14-22.24C346.43,909.58,339.82,906.36,333.05,904.47Zm271.15,8.76c-7.04,6.56-10.11,16.3-10.63,25.7,2.3,0,4.61,0,6.92.02.32-6.02,1.51-12.25,5.22-17.16,3.55-5.01,9.18-8.1,15.07-9.5-.01-2.29-.02-4.58-.03-6.85C614.69,906.55,608.69,908.88,604.2,913.23Zm20.98-7.78c.39,1.94.79,3.9,1.21,5.86,7.69,1.56,15.28,4.72,20.97,10.26A30.009,30.009,0,0,1,655.93,938c1.96-.01,3.92-.03,5.89-.03-1.22-9.15-5.66-18-12.99-23.74C642.15,908.81,633.6,906.37,625.18,905.45ZM301.25,937.51c2.29,0,4.58.02,6.87.02,2.41-7.81,9.37-13.21,17.1-15.18.37-2.68.75-5.35,1.1-8.02C313.75,915.34,305.04,926.33,301.25,937.51Zm28.57-15.19c6.44,2.63,12.12,7.97,12.86,15.22,2.28-.02,4.55-.02,6.84-.03-.51-4.05-1.29-8.15-3.29-11.75-2.9-5.86-8.65-9.67-14.8-11.44C330.87,916.97,330.35,919.64,329.82,922.32Zm281.05-.52c-4.89,4.23-6.89,10.81-6.96,17.11l7.18.03a17.157,17.157,0,0,1,11.76-15.41c-.29-2.43-.6-4.86-.89-7.28C617.98,917.43,613.95,918.92,610.87,921.8Zm16.64-5.55c.22,2.38.46,4.77.7,7.17,7.89,1.16,15.05,6.64,16.99,14.58q3.345-.015,6.72-.04A29.752,29.752,0,0,0,627.51,916.25Zm-267.04,6.13c4.09,9.31,4.77,20.39-.02,29.59,5.03-.06,10.06-.02,15.09-.04q-.03-14.775-.01-29.53C370.51,922.38,365.49,922.4,360.47,922.38Zm217.34-.16q-.015,14.865,0,29.72c5.06,0,10.13-.02,15.21.02-3.04-9.69-2.31-20.17.75-29.75C588.45,922.23,583.13,922.22,577.81,922.22Zm-356.42,5.1c-2.44,1.41-5.32,1.49-8.03,1.9.02,1.29.04,2.6.06,3.91,4.1,1.29,8.87,2.05,11.55,5.79-3.07,3.17-7.46,4.12-11.58,5.18,0,1.84,0,3.69-.01,5.56,3.99.44,8.84.25,11.31,4.08.86-.45,2.95.07,2.4-1.59.06-9.95.01-19.9,0-29.84C223.56,921.77,224.02,926.22,221.39,927.32Zm9.17-4.76q-.015,15.48,0,30.96c7.22,0,14.44.06,21.66-.04-.05-7.45-.01-14.89-.02-22.34-2.55-.27-5.33-.24-7.48-1.83-2.41-1.52-3.42-4.29-4.55-6.74C236.97,922.55,233.76,922.55,230.56,922.56Zm28.43,0c-.49,2.85-1.98,5.32-3.4,7.79-.5,7.7-.04,15.46-.19,23.19,1.64-.02,3.29-.02,4.94-.02q-.015-15.48-.01-30.94Zm434.07,1.91q0,14.64-.01,29.29c.85.01,2.54.01,3.39.02.01-9.77-.18-19.54-.11-29.31Zm16.84,6.38a72.9,72.9,0,0,1-9.23.2q-.015,11.37,0,22.73,10.38-.015,20.76,0,.03-14.655.01-29.31c-1.88-.01-3.74-.01-5.6.01C714.37,926.96,712.94,930.04,709.9,930.85Zm14.32-6.02c.01,9.66-.01,19.31.01,28.97,1.03-.04,2.07-.07,3.13-.08,2.58-3.46,7.1-3.4,10.99-3.3-.03-1.73-.03-3.44-.03-5.15-3.17-.86-6.45-1.52-9.36-3.08-1.06-.63-2.75-1.41-1.49-2.77,3.19-2.16,7.19-2.38,10.86-3.18-.01-1.68,0-3.34.01-5-4.45-.55-8.96-2.3-11.17-6.47C726.43,924.79,724.96,924.82,724.22,924.83ZM312.05,937.49c1.85,0,3.71.02,5.56.03a12.214,12.214,0,0,1,6.1-4.66q.3-3.585.54-7.15C318.29,927.03,313.88,931.8,312.05,937.49Zm16.9-11.08c-.37,2.14-.72,4.31-1.05,6.48a13.733,13.733,0,0,1,4.59,4.66c2.01-.02,4.03-.04,6.04-.07C337.28,932.51,334.3,927.59,328.95,926.41ZM614.39,939c2.37-.29,4.74-.61,7.11-.98a14.127,14.127,0,0,1,3.73-4.01c-.27-2.12-.55-4.21-.84-6.31A12.079,12.079,0,0,0,614.39,939Zm14.01-11.46c.5,2.04,1.04,4.1,1.61,6.15a8.436,8.436,0,0,1,5.48,4.3c1.82-.01,3.65-.02,5.48-.04C638.5,932.9,634.44,927.96,628.4,927.54Zm-348.2,1.39c.12,2.78.19,5.57.12,8.36.55-2.47,1.18-4.92,1.91-7.34C281.72,929.7,280.71,929.19,280.2,928.93Zm390.1.95a57.17,57.17,0,0,0,1.48,6.89C671.54,934.47,672.64,931.35,670.3,929.88Zm-348.04,6.38a8.082,8.082,0,0,0-2.72,5.75c.07,3.44,4.96,5.43,7.46,3.08a7.989,7.989,0,0,0,1.97-6.02C328.56,936.14,324.62,934.67,322.26,936.26Zm304.9,1.09c-3.25,1.22-4.22,6.79-.88,8.44,1.64.64,3.99,1.52,5.23-.27C634.58,942.53,632.02,935.09,627.16,937.35Zm-336.24,4.23c-.77,6.66-.47,13.72,2.72,19.77,4.2,8.32,12.58,13.69,21.34,16.24.35-2.51.7-5,1.05-7.49-4.31-.62-8.69-2.08-11.68-5.39-5.86-6.17-7.24-15.05-7.7-23.2C294.74,941.52,292.83,941.55,290.92,941.58Zm10.26.02c-.62,4.09-.97,8.48.86,12.34,2.77,6.3,8.93,10.17,15.09,12.64q.6-3.75,1.17-7.49c-3.06-1.08-6.33-2.36-8.14-5.23-2.56-3.57-2.49-8.15-2.3-12.33Q304.515,941.545,301.18,941.6Zm10.84.46c.21,2.78.21,5.76,1.77,8.2,1.29,2.41,3.82,3.66,6.09,4.97q.525-3.165,1-6.31a7.976,7.976,0,0,1-4.05-6.93C315.22,941.99,313.62,942.02,312.02,942.06Zm20.32-.52c-.77,3.88-3.46,7.18-7.59,7.58q-.375,3.015-.72,6.08c7.06-1.13,13.55-6.2,14.51-13.6C336.47,941.56,334.41,941.54,332.34,941.54Zm10.16.05c-1.07,3.84-2.49,7.69-5.12,10.76-3.43,4.42-8.9,6.59-14.34,7.12-.31,2.37-.61,4.74-.88,7.13,5.5-.18,11.07-1.62,15.47-5.05,6.44-4.78,9.9-12.41,11.85-19.99C347.14,941.55,344.82,941.56,342.5,941.59Zm11.13-.04c-1.86,8.74-6.19,17.28-13.48,22.69-5.38,4.14-12.12,5.99-18.8,6.46-.38,2.28-.75,4.56-1.1,6.87,9.74-.26,19.58-3.75,26.63-10.62,7.01-6.66,10.68-16.02,12.35-25.38C357.36,941.55,355.49,941.54,353.63,941.55Zm303.2,1.12c0,6.35-1.31,12.89-5,18.19-3.49,5.28-9.16,8.64-15.08,10.57-.02,1.96-.03,3.93-.02,5.92,7.86-1.79,15.48-5.92,20.03-12.74,4.42-6.36,5.48-14.37,5.02-21.93C660.12,942.66,658.47,942.66,656.83,942.67Zm-62.24.83c1.66,10.05,6.37,19.93,14.53,26.28,6.3,5.08,14.35,7.39,22.31,8.09,0-2.1.01-4.17.02-6.24-8.04-.44-16.12-3.46-21.7-9.41-4.96-5.09-7.53-11.93-8.9-18.77C598.75,943.45,596.67,943.47,594.59,943.5Zm41.62-.83a8.9,8.9,0,0,1-3.49,6.41c.27,2.02.57,4.04.89,6.08,2.26-1.16,4.81-2.25,6.04-4.63,1.46-2.34,1.24-5.22,1.42-7.84C639.44,942.66,637.82,942.66,636.21,942.67Zm9.87-.01c-.02,3.29.1,6.84-1.73,9.75-2.05,3.72-5.98,5.73-9.78,7.23.36,2.05.73,4.13,1.11,6.21,3.75-.83,7.6-2.03,10.38-4.82,4.99-4.67,6.59-11.77,6.72-18.35C650.54,942.65,648.31,942.66,646.08,942.66Zm-42.2.86c1.38,5.2,3.43,10.39,7.23,14.33,4.9,5.37,11.98,8.19,19.09,9.04-.24-2.07-.47-4.12-.7-6.17-9.1-1.18-15.82-8.75-18.16-17.28C608.85,943.46,606.36,943.47,603.88,943.52Zm11.2,0a16.578,16.578,0,0,0,13.49,12.84q-.09-3.15-.23-6.28a9.886,9.886,0,0,1-6.67-6.62C619.46,943.46,617.26,943.47,615.08,943.52ZM280.87,954.19c1.97-2.13-.26-5.14-.34-7.58C280.59,949.13,280.65,951.66,280.87,954.19Zm388.88.46c3.83-.14,1.75-4.59,2.11-7.03C671.1,949.94,670.38,952.28,669.75,954.65Zm-449.13,3.72a36.133,36.133,0,0,1-6.06.66v4.75c3.7.72,8.3.47,10.82,3.83-3.12,2.7-6.95,4.29-10.82,5.59v6.24c3.65.58,7.8.54,10.56,3.41-2.9,2.96-6.75,4.52-10.56,5.92v4.43q6.27-.015,12.54,0c0-12.59.03-25.18-.01-37.76C224.6,955.62,222.77,957.35,220.62,958.37Zm10.05-2.64q-.015,18.735,0,37.47H252.2q0-18.75-.01-37.47Q241.435,955.715,230.67,955.73Zm24.73,36.81c1.64-.02,3.29-.02,4.94-.02q-.015-18.39-.01-36.79c-1.64-.01-3.29-.02-4.93-.01Q255.37,974.125,255.4,992.54Zm25.33-37.21c-.15,12.1,0,24.2-.08,36.3,7.76.07,15.52.01,23.28.04q.015-7.635.01-15.27c-7.94-3.25-13.97-9.77-18.63-16.77C284.09,957.89,283.09,955.64,280.73,955.33Zm78.45,1.01a38.035,38.035,0,0,1-4.14,5.56c-.08,9.92-.03,19.84-.03,29.77,6.84-.01,13.68,0,20.52-.01V956.34C370.08,956.34,364.63,956.32,359.18,956.34ZM577.8,956v36.44H598c-.04-9.99.07-19.99-.06-29.97a39.065,39.065,0,0,1-4.31-6.46C588.35,955.99,583.07,956,577.8,956Zm90.08,3.81a44.123,44.123,0,0,1-18.61,18.89c-.08,4.82-.05,9.66-.05,14.49,7.45.02,14.9-.01,22.36.02.01-11.95.11-23.9-.06-35.84A3.752,3.752,0,0,0,667.88,959.81Zm25.19-2.08c-.08,11.82-.33,23.64-.41,35.47.94,0,2.83-.01,3.78-.01V957.73Zm7.6,0q-.015,17.73,0,35.47,10.38-.015,20.77,0V957.73Q711.045,957.715,700.67,957.73Zm23.55-.01q.015,17.73,0,35.47c4.78,0,9.56.02,14.35-.01-.11-.63-.34-1.9-.45-2.54-3.8-2.03-8.51-2.86-11.08-6.66,3.25-2.46,7.37-2.82,11.28-3.28,0-1.75.01-3.49.04-5.2-3.76-1.69-8.14-2.76-10.92-5.98-.67-1.57,1.3-2.13,2.39-2.58a43.332,43.332,0,0,1,8.5-1.3c-.01-1.9,0-3.79.01-5.67-3.83.18-7.93.25-11.14-2.16C726.45,957.79,724.96,957.74,724.22,957.72ZM329.81,980.73q0,5.43-.04,10.88c6.94.11,13.89.03,20.84.06.02-7.91-.07-15.81.05-23.71C345.53,974.61,337.79,978.6,329.81,980.73Zm272.06-13.35q.045,12.51,0,25.02c7,.08,13.99.02,20.99.05q0-5.565.01-11.11A44.9,44.9,0,0,1,601.87,967.38ZM316.04,980.24c-.36,25.7-.02,51.4-.17,77.1.8.04,1.6.09,2.41.15q0-38.505,0-77.01Zm6.09.69c.01,3.57,0,7.16.01,10.75,1.35-.03,2.7-.03,4.06-.03q-.015-5.37,0-10.72C324.84,980.92,323.48,980.92,322.13,980.93Zm304.27.87q-.015,5.31,0,10.64h3.8c-.01-3.55-.01-7.1,0-10.63C629.25,981.81,627.35,981.8,626.4,981.8Zm8.25,1c-.02,23.73.03,47.45-.03,71.18a7.678,7.678,0,0,0,1.04,4.32c.77-8.41.13-16.88.34-25.31q0-25.1,0-50.19ZM255.4,1032.61c1.64-.02,3.29-.02,4.94-.02q-.015-18.42-.01-36.85c-1.63-.02-3.27-.04-4.9-.04C255.35,1008,255.41,1020.3,255.4,1032.61Zm25.27-36.88q-.015,18.435-.01,36.87c7.76.01,15.51-.01,23.27.01q.03-18.45.01-36.88Q292.3,995.715,280.67,995.73Zm41.47,0c.04,11.96-.15,23.93-.07,35.9,1.37-.04,2.75-.05,4.13-.06q-.015-17.925-.01-35.84C324.84,995.72,323.48,995.72,322.14,995.73Zm7.66,0c-.02,11.94.04,23.88-.03,35.82,6.94.11,13.89.03,20.83.06-.01-11.97.03-23.93-.02-35.89C343.66,995.73,336.73,995.72,329.8,995.73Zm25.2,0c.04,11.95-.04,23.91-.11,35.87q10.32,0,20.65,0c-.02-11.96,0-23.92-.02-35.87Q365.26,995.73,355,995.73Zm222.79.77c.03,12.09,0,24.18.02,36.28q10.08-.015,20.18,0c-.02-12.12.08-24.24-.05-36.35C591.22,996.52,584.51,996.42,577.79,996.5Zm24.13-.04c-.07,12.1-.01,24.21-.02,36.32q10.47-.015,20.96,0,0-18.165,0-36.31C615.88,996.46,608.9,996.47,601.92,996.46Zm24.48-.02q-.015,18.165-.01,36.33c1.26-.01,2.53-.01,3.8.01.02-12.09-.01-24.18.02-36.26C628.93,996.48,627.66,996.45,626.4,996.44Zm-411.84.23v17.38q-4.455,0-8.89.01-.015,9.6,0,19.21H227.1q.015-18.3,0-36.6Q220.83,996.655,214.56,996.67Zm16.11,0q-.015,18.3,0,36.6H252.2v-36.6Q241.43,996.655,230.67,996.67Zm418.55,1.34q.015,17.37.01,34.76,11.175,0,22.38,0-.015-17.385,0-34.76Q660.405,997.98,649.22,998.01Zm43.45-.01c-.03,11.59.08,23.19.07,34.79.92-.01,2.77-.01,3.69-.01q.03-17.4.01-34.78Zm8,0q0,17.385,0,34.78,10.38-.015,20.76,0,.03-17.4.01-34.78Zm23.53.01c.24,12.28.25,24.56.36,36.84,6.85.02,13.69.01,20.55.01q0-9.435,0-18.86-3.4-.015-6.78-.01.015-9,0-17.99Q731.265,997.985,724.2,998.01Zm-528.07,16.05c0,1.17,0,2.35.01,3.54.81.01,2.44.01,3.25.01.01,5.22,0,10.44.01,15.67,1.12-.02,2.24-.02,3.37,0,.01-6.41,0-12.82.01-19.22Q199.45,1014.045,196.13,1014.06Zm552.01,2.27q-.015,9.27,0,18.54c1.83-.02,3.68-.02,5.53-.01q-.015-7.545,0-15.08c.82,0,2.46-.01,3.28-.02-.02-1.15-.03-2.3-.02-3.43ZM205.67,1035.8q-.015,13.065,0,26.14,10.71-.615,21.43-1.17.015-12.48,0-24.97Zm25,0q-.015,12.48-.01,24.95c7.18-.49,14.36-1.04,21.53-1.56q.015-11.7.01-23.39Zm24.72,23.38c1.63-.16,3.26-.32,4.9-.45.09-7.64.02-15.27.04-22.9-1.63-.04-3.26-.06-4.89-.07C255.34,1043.56,255.42,1051.37,255.39,1059.18ZM272,1035.8v22.89c1.76-.17,3.51-.34,5.27-.48v-22.4C275.51,1035.79,273.75,1035.79,272,1035.8Zm8.67,0q-.015,11.205,0,22.42,11.625-.435,23.26-.8.015-10.815.01-21.61Q292.3,1035.8,280.67,1035.8Zm41.47.01q0,10.815,0,21.63c1.5-.01,3.01-.01,4.52,0q.015-10.815,0-21.64C325.15,1035.79,323.64,1035.79,322.14,1035.81Zm7.66,0v21.63h13.09c.01,5.38-.02,10.78.03,16.17q3.84-.015,7.68-.01c-.04-12.61.09-25.22-.06-37.83C343.63,1035.83,336.72,1035.78,329.8,1035.81Zm25.1-.01c.04,12.61-.11,25.22.07,37.82,6.85-.18,13.71-.06,20.56-.09-.01-12.58.03-25.16-.02-37.73C368.64,1035.81,361.77,1035.79,354.9,1035.8Zm24.9,0c-.01,12.57.01,25.14-.01,37.71,90.4.12,180.81-.13,271.21.14v20.41q-174.03.12-348.06.33c0-6.96-.02-13.91.02-20.86H313.2q0-4.59-.01-9.16c-8.22.13-16.45.43-24.67.53-.11,10.87-.03,21.75-.05,32.63,4.63-.03,9.26.04,13.89.03.3-.32.89-.98,1.18-1.3,6.77-.41,13.59-.03,20.38-.15,114.06.21,228.12.09,342.18.33q.015-15.7.01-31.41c-7.96-.28-15.92-.33-23.87-.59-.02,2.93-.02,5.86-.02,8.8-1.61-.04-3.22-.06-4.81-.06.93-2.8.86-5.76.85-8.66-7.41-.12-14.82,0-22.22-.08-.04,2.62-.05,5.25-.05,7.9-.88-.02-2.62-.05-3.49-.07-.09-4.75-.06-9.5-.07-14.25,3.48-.03,6.95-.03,10.44-.03q-.015-11.04-.01-22.1H601.89c.01,11.99-.01,23.98.02,35.97-1.31-.05-2.61-.08-3.9-.1-.03-11.96,0-23.91-.01-35.87q-10.1,0-20.2.01v35.18c-1.47-.05-2.92-.09-4.37-.11,0-11.69.02-23.38.15-35.06-6.51-.05-13.01-.08-19.51-.16.33,11.71.53,23.43.7,35.15q-77.88-.015-155.77,0-.015-17.55,0-35.1Zm246.59.1q0,11.04,0,22.09c1.26-.01,2.53-.01,3.81.01v-22.11C628.92,1035.88,627.65,1035.88,626.39,1035.9Zm22.83.83q0,10.635,0,21.26c7.46.01,14.93.02,22.4-.01-.03-7.09,0-14.17-.02-21.25Q660.41,1036.73,649.22,1036.73Zm26.58.74V1058q2.055-.015,4.14,0,0-10.275,0-20.53Q677.855,1037.455,675.8,1037.47Zm16.87,0q-.015,10.26,0,20.53h3.78c-.17-6.85-.17-13.69-.27-20.53Zm8,0c-.01,6.72.01,13.44-.02,20.16,6.82.21,13.64.26,20.46.33-.01-6.83,0-13.66-.01-20.49Q710.885,1037.455,700.67,1037.47Zm23.55.43v21.96H745.1q.015-10.98.01-21.97Q734.655,1037.89,724.22,1037.9Zm-407.14,26.2c-.02,3.14-.02,6.28-.01,9.44,7.73-.02,15.47,0,23.2-.02v-9.85C332.54,1063.76,324.81,1064.02,317.08,1064.1ZM260,1065.85c.03,10.57-.06,21.14.05,31.72,8.49-.08,16.99-.02,25.48-.04.01-10.82-.01-21.64.01-32.45C277.03,1065.33,268.52,1065.62,260,1065.85Zm410.4-.53c0,10.37-.02,20.75,0,31.12q12.435-.015,24.87,0v-30.69C686.98,1065.63,678.69,1065.38,670.4,1065.32Zm-438.34,1.78c.01,10.14-.01,20.29.01,30.44,8.12-.02,16.25,0,24.37-.02-.01-10.5.02-21-.01-31.5C248.3,1066.4,240.18,1066.72,232.06,1067.1Zm466.33-.8c.01,10.04-.01,20.09.01,30.14q12.015-.015,24.04,0c.01-9.79-.01-19.57,0-29.35C714.43,1066.82,706.41,1066.5,698.39,1066.3Zm-247.47,10.15c-.02,1.13-.03,2.28-.04,3.44-.85.01-2.56.01-3.41.01-.01,1.8-.01,3.6,0,5.43h3.32c.01.8.02,2.4.02,3.2,2.12-.01,4.25-.01,6.37,0,.01-.78.03-2.32.04-3.1.82,0,2.48.01,3.31.01v-5.77c-.84,0-2.52-.01-3.35-.01.01-.79.04-2.36.06-3.15Q454.075,1076.465,450.92,1076.45Zm16.42.02c-.01,1.12-.01,2.26-.01,3.42-.86,0-2.58.01-3.44.01v5.43c.81,0,2.42,0,3.23.01.01,1.05.02,2.11.04,3.2q3.21-.03,6.43,0c.01-.78.02-2.32.03-3.09.81,0,2.43-.01,3.24-.01v-5.77c-.81-.01-2.43-.01-3.25-.02,0-.79-.01-2.39-.02-3.19Q470.455,1076.46,467.34,1076.47Zm31.68-.15c-.02,1.13-.03,2.26-.04,3.41h-3.42q-.015,2.715,0,5.46c.83,0,2.49,0,3.32.01.01.78.02,2.35.02,3.13q3.18-.015,6.36,0c.01-.79.02-2.37.03-3.16.8.02,2.4.05,3.2.06.02-1.93.03-3.85.06-5.75-.82-.01-2.45-.01-3.27-.02,0-.78-.01-2.34-.01-3.12C503.18,1076.32,501.1,1076.32,499.02,1076.32Zm15.01-.32c-.04,1.12-.06,2.27-.08,3.42-.85-.01-2.54-.02-3.39-.03-.01,1.8,0,3.64,0,5.47.81,0,2.43.01,3.24.01,0,.78.01,2.35.01,3.13q3.18-.015,6.38,0c0-.76.01-2.29.01-3.05,1.11-.02,2.22-.03,3.34-.03-.01-1.93-.01-3.86,0-5.76-1.12-.03-2.23-.04-3.34-.04,0-.78-.01-2.34-.01-3.12Q517.1,1075.985,514.03,1076Zm16.31,0c-.01.85-.01,2.54-.01,3.39-.86,0-2.57,0-3.43.01-.01,1.8-.01,3.62-.01,5.46.83,0,2.5.01,3.33.01,0,.78,0,2.35.01,3.13,2.12-.01,4.24-.01,6.38,0v-3.05c.81,0,2.44-.02,3.26-.03-.01-1.93-.01-3.86,0-5.77-.82-.01-2.45-.02-3.27-.03.01-.77.01-2.33.02-3.11C534.52,1075.99,532.42,1075.99,530.34,1076Zm-110.55,4.22c-.85,0-2.55.01-3.4.02v5.42c.83,0,2.49.01,3.32.01.01.8.02,2.39.03,3.19q3.165-.015,6.35.01c.01-.8.02-2.4.02-3.19,1.11-.03,2.22-.03,3.33-.03,0-1.88,0-3.76.01-5.62-1.12-.03-2.24-.05-3.35-.05,0-.8,0-2.38.01-3.18-2.11-.01-4.2-.01-6.3,0C419.8,1077.93,419.79,1079.07,419.79,1080.22Zm16.22-3.42c-.01.85-.01,2.56-.02,3.42-1.15-.01-2.29,0-3.43.02-.01,1.79-.01,3.59-.01,5.41.82.01,2.44.02,3.25.03,0,.79-.01,2.38-.01,3.17,2.14-.01,4.29-.02,6.45-.01-.02-.79-.04-2.37-.05-3.16.84-.01,2.51-.02,3.35-.03-.01-1.89-.01-3.76,0-5.63-1.12-.03-2.24-.04-3.35-.04,0-.79,0-2.38.01-3.18Q439.1,1076.785,436.01,1076.8Zm46.8-.46c0,.84-.01,2.54-.01,3.39h-3.4c-.01,1.81-.01,3.62,0,5.46.83,0,2.49.01,3.33.01v3.13q3.18-.015,6.37,0c0-.78.01-2.35.01-3.13.84,0,2.5-.01,3.33-.01-.01-1.92-.01-3.83,0-5.72-.83,0-2.49.01-3.32.01,0-.79-.02-2.36-.02-3.14C486.99,1076.32,484.9,1076.32,482.81,1076.34Z" transform="translate(169.872 42.167)"/><path class="cls-2" d="M439.4,1056.46q-.06-127.92.01-255.84c11.9.05,23.8-.16,35.69.11-.53,17.74.03,35.51-.29,53.25q.045,101.25-.09,202.5C462.95,1056.45,451.17,1056.48,439.4,1056.46Zm15.94-251.79c0,.76,0,2.28-.01,3.04q-1.635,0-3.27.03v5.44c1.09,0,2.17.01,3.27.03,0,.81.01,2.43.02,3.23q2.775-.015,5.58,0c-.02-.78-.05-2.34-.06-3.13.78-.01,2.35-.04,3.13-.05-.01-1.82-.01-3.62,0-5.42-1.08-.06-2.16-.11-3.23-.15v-3.02C458.95,804.66,457.15,804.66,455.34,804.67Zm-.12,12.81c0,.8.01,2.41.01,3.21-1.07.04-2.13.09-3.18.16,0,1.82.01,3.66.02,5.51,1.04.03,2.09.07,3.15.13.01.73.01,2.21.02,2.95,1.85-.01,3.72,0,5.59,0,.03-.77.09-2.33.12-3.1.76,0,2.29-.01,3.05-.01-.01-1.88-.01-3.74,0-5.59-1.08-.02-2.16-.03-3.22-.03-.01-.81-.01-2.43-.01-3.24C458.91,817.45,457.06,817.46,455.22,817.48Zm.09,12.92.08,3.32c-1.11-.01-2.22,0-3.33.02,0,1.82-.01,3.66,0,5.51,1.08.01,2.17.03,3.26.06.01.79.02,2.35.03,3.13,1.8-.01,3.6-.01,5.41,0,.01-.81.02-2.42.02-3.23,1.07-.02,2.14-.03,3.22-.02-.01-1.85-.01-3.69,0-5.51-1.08-.02-2.16-.03-3.22-.03-.01-.81-.01-2.44-.01-3.26C458.94,830.38,457.12,830.39,455.31,830.4Zm.01,16.26c-.82,0-2.44.01-3.26.01,0,1.82-.01,3.65,0,5.5,1.11.04,2.22.09,3.34.15v3.12q2.67-.015,5.37,0v-3.23c1.07-.02,2.15-.03,3.23-.02-.01-1.92-.01-3.83-.01-5.73-.79,0-2.37.01-3.16.01-.04-.76-.11-2.28-.14-3.04-1.78.01-3.56.03-5.33.04C455.35,844.27,455.33,845.86,455.32,846.66Zm-.09,9.74v3.35c-1.06.05-2.12.1-3.17.17v6.26q1.635,0,3.27.03c.01.81.01,2.42.01,3.23q2.7-.015,5.43,0c0-.83,0-2.49.01-3.32,1.06-.02,2.14-.03,3.22-.02q-.015-3.225,0-6.42c-1.08-.02-2.16-.03-3.22-.03-.01-.81-.01-2.44-.01-3.25C458.92,856.39,457.07,856.39,455.23,856.4Zm.01,14.01c0,.83-.01,2.48-.02,3.3-1.06,0-2.11.01-3.16.03v5.44q1.635,0,3.27.03c.01.81.01,2.42.01,3.23,1.8-.01,3.61-.01,5.42,0,.01-.81.02-2.42.02-3.23,1.07-.02,2.14-.03,3.22-.02-.01-1.83-.01-3.65,0-5.45-1.08-.02-2.16-.03-3.23-.03v-3.32C458.92,870.39,457.08,870.39,455.24,870.41Zm.08,16.24c-1.1,0-2.18.01-3.27.03,0,1.8.01,3.61.02,5.42,1.07.05,2.16.1,3.25.17.01.76.02,2.3.03,3.07,1.8-.02,3.61-.02,5.42-.01v-3.2c1.08-.03,2.16-.04,3.25-.04-.03-1.87-.05-3.74-.08-5.59-.79.02-2.37.06-3.16.09v-3.11c-1.81-.02-3.62-.03-5.42-.03Zm-.14,9.7c-.04.84-.1,2.52-.13,3.36-.75-.01-2.24-.05-2.99-.06v6.61c1.05,0,2.1.01,3.17.03v3.24c1.84-.01,3.69-.01,5.54,0,0-.83,0-2.49.01-3.32,1.06-.02,2.14-.03,3.22-.02,0-2.18-.01-4.35,0-6.51-1.08-.02-2.16-.04-3.23-.04v-3.31C458.89,896.32,457.04,896.33,455.18,896.35Zm.17,14.3c-.07.8-.21,2.4-.27,3.21-1.02-.03-2.03-.04-3.03-.04,0,1.78.01,3.58.02,5.39,1.04-.02,2.09-.02,3.15-.01,0,.81.01,2.43.02,3.24,1.83-.01,3.68-.01,5.52,0,.01-.81.01-2.42.02-3.23,1.07-.02,2.16-.03,3.25-.02-.04-1.85-.06-3.69-.09-5.52l-3.14.08-.08-3.4C458.92,910.44,457.13,910.46,455.35,910.65Zm.01,15.94c-.82.02-2.47.07-3.3.1,0,1.82-.01,3.65,0,5.5.82,0,2.45.01,3.26.01q0,1.6.03,3.24c1.8-.01,3.6-.01,5.42,0,0-.81,0-2.42.01-3.23,1.07-.02,2.14-.03,3.22-.02-.01-1.86-.01-3.7-.01-5.53h-3.2l-.04-3.2c-1.78-.01-3.55-.01-5.32,0C455.41,924.24,455.38,925.81,455.36,926.59Zm.02,9.8c-.05.83-.13,2.49-.18,3.32-1.05,0-2.1.01-3.14.03v5.38c.75.03,2.24.08,2.99.11,0,.78.02,2.33.03,3.1,1.82-.01,3.65-.01,5.49.01.09-1.08.23-2.14.41-3.17.76-.09,2.27-.25,3.02-.34,0-1.76-.01-3.52,0-5.26-1.08-.02-2.16-.03-3.22-.02-.01-.79-.01-2.36-.01-3.15C458.97,936.39,457.17,936.38,455.38,936.39Zm-.04,13.01c0,.79-.01,2.36-.01,3.15-1.09-.01-2.19,0-3.27.02-.01,1.86,0,3.73,0,5.61q1.635,0,3.27.03c.01.78.01,2.34.01,3.12,1.8-.01,3.61-.01,5.42.01.01-.79.02-2.35.02-3.13,1.07-.02,2.14-.03,3.22-.02-.01-1.88-.01-3.76,0-5.62-1.08-.02-2.16-.03-3.22-.02-.01-.79-.01-2.37-.01-3.15Q458.04,949.37,455.34,949.4Zm0,12.94c0,.84-.01,2.52-.01,3.36-1.1-.06-2.19-.11-3.27-.14-.01,1.88,0,3.79,0,5.7,1.05-.04,2.1-.07,3.16-.08,0,.79.01,2.36.02,3.15,1.84-.01,3.68-.01,5.54,0-.01-.79-.02-2.38-.02-3.18,1.07-.04,2.16-.06,3.25-.07-.02-1.89-.03-3.77-.04-5.63-.79,0-2.38.02-3.18.03-.01-.79-.03-2.37-.03-3.15C458.94,962.32,457.14,962.32,455.34,962.34Zm-.13,13c.01.78.03,2.35.04,3.13-1.07-.01-2.14-.01-3.19.01-.01,2.23,0,4.48,0,6.73,1.09-.05,2.18-.09,3.27-.11.01.84.01,2.5.01,3.34,1.79-.01,3.59-.01,5.4.01.02-1.15.06-2.27.09-3.39.79.02,2.38.05,3.17.06,0-2.22-.01-4.44,0-6.64-1.08-.02-2.15-.03-3.22-.02,0-.78-.01-2.34-.01-3.13C458.91,975.32,457.06,975.33,455.21,975.34Zm.13,14c0,.77-.01,2.32-.01,3.09-1.09.02-2.18.06-3.27.11v5.65c1.09-.01,2.19-.02,3.3,0-.01.78-.02,2.36-.03,3.14,1.81-.01,3.62-.01,5.44,0,0-.78,0-2.34.01-3.12,1.06-.02,2.14-.03,3.22-.02q-.015-2.775,0-5.52c-1.08-.02-2.16-.02-3.23-.01v-3.32C458.96,989.32,457.14,989.32,455.34,989.34Zm0,13c-.01.85-.01,2.55-.01,3.4-1.1-.04-2.19-.06-3.27-.07-.01,1.83,0,3.68,0,5.53,1.05-.04,2.11-.06,3.18-.07-.01.79-.01,2.36-.02,3.14,1.85-.01,3.69-.01,5.55,0,0-.76.01-2.3.01-3.06,1.07-.02,2.14-.03,3.22-.02-.01-1.89-.01-3.76,0-5.62-1.08-.02-2.15-.03-3.22-.02,0-.81-.01-2.42-.02-3.22C458.95,1002.32,457.14,1002.32,455.34,1002.34Zm-.01,12.89c0,.83.01,2.49.01,3.32-1.1-.01-2.19,0-3.28.02-.01,1.83,0,3.68,0,5.54.82-.03,2.44-.11,3.26-.14q0,1.635.03,3.3c1.8-.01,3.6-.01,5.41,0,0-1.07.01-2.12.03-3.16.8,0,2.41-.01,3.21-.01-.01-1.89-.01-3.77-.01-5.64-.8,0-2.4.01-3.2.01-.01-.81-.02-2.44-.03-3.25C458.95,1015.21,457.14,1015.21,455.33,1015.23Z" transform="translate(169.872 42.167)"/><path class="cls-2" d="M481.34,1056.47q-.015-128.01,0-256.04c11.85.02,23.71,0,35.56.02q-.03,128.01-.19,256.03Q499.025,1056.45,481.34,1056.47Zm15.22-251.8v3.05c-.79,0-2.37.01-3.16.02-.01,1.8-.01,3.62,0,5.44.79.01,2.37.02,3.17.03-.01.81-.01,2.42-.01,3.23,1.86-.01,3.74-.01,5.62,0,.01-.78.04-2.35.05-3.13.76-.02,2.28-.05,3.04-.06-.01-1.82,0-3.62,0-5.42-.81-.02-2.43-.07-3.23-.09-.02-.77-.05-2.31-.06-3.08C500.17,804.66,498.36,804.65,496.56,804.67Zm0,12.89v3.16c-.79,0-2.37.01-3.16.02-.01,1.8-.01,3.62,0,5.45.79,0,2.37.01,3.16.02v3.23q2.805-.015,5.64,0c0-.78-.01-2.35-.02-3.13l3.09-.12c0-1.83-.01-3.65,0-5.46h-3.26c0-.79-.01-2.38-.02-3.17C500.18,817.55,498.36,817.55,496.56,817.56Zm0,12.91v3.19c-.79,0-2.37.01-3.16.01-.01,1.8-.01,3.61,0,5.42.79.01,2.37.03,3.17.03,0,.81-.01,2.41-.01,3.21,1.87-.01,3.75-.01,5.63,0V839.2c.77,0,2.31-.01,3.08-.01,0-1.85-.01-3.69,0-5.52-.81,0-2.44,0-3.25.01-.01-.81-.03-2.41-.03-3.21Q499.26,830.455,496.56,830.47Zm0,13.26c0,.79.01,2.36.01,3.15-.8,0-2.38.02-3.17.03-.01,1.8-.01,3.6,0,5.42.79,0,2.37.01,3.16.01v3.26c1.87-.01,3.75-.01,5.63,0,0-.79.01-2.38.02-3.17.76,0,2.3.01,3.06.01-.01-1.86,0-3.7,0-5.54h-3.26c-.01-.8-.01-2.38-.02-3.17C500.18,843.72,498.36,843.71,496.56,843.73Zm0,13.27v3.1c-1.07.01-2.12.03-3.18.07,0,1.8.01,3.61.02,5.44.78-.01,2.35-.01,3.14-.01.01.81.02,2.45.03,3.26,1.87-.01,3.74-.01,5.62,0,0-.8.01-2.4.02-3.2h3.07c-.02-1.86-.01-3.69-.01-5.52-.82,0-2.45-.01-3.26-.01-.01-.78-.01-2.35-.02-3.13Q499.275,856.985,496.56,857Zm-.01,13.48c.01.8.01,2.39.02,3.18-.8,0-2.38.01-3.17.01q-.015,2.7,0,5.43c.79,0,2.37.01,3.17.02-.01.8-.01,2.41-.01,3.21q2.805-.015,5.64,0c-.01-.78-.01-2.34-.01-3.12.77-.01,2.31-.02,3.08-.03-.01-1.85,0-3.69,0-5.51-.81,0-2.43.01-3.24.01-.03-1.09-.05-2.16-.06-3.23C500.16,870.45,498.35,870.46,496.55,870.48Zm.02,13.08c-.01.78-.01,2.33-.01,3.1-.79,0-2.37.01-3.16.01-.01,1.8-.01,3.61,0,5.42.79.01,2.38.03,3.17.03,0,.8-.01,2.41-.01,3.21,1.87-.01,3.75-.01,5.63,0,0-.78.01-2.34.02-3.12.76-.01,2.29-.02,3.06-.03v-5.43c-.81-.03-2.45-.08-3.26-.1-.01-.77-.01-2.32-.02-3.09C500.18,883.55,498.37,883.55,496.57,883.56ZM496.56,897c0,.78,0,2.34-.01,3.12-1.06,0-2.12.01-3.16.04-.01,1.8,0,3.62.01,5.44h3.14c.01.82.02,2.45.03,3.26,1.87-.01,3.74-.01,5.62,0,0-.8.01-2.4.02-3.2h3.07c-.02-1.86-.01-3.68-.01-5.52-.82,0-2.45-.01-3.26-.01-.01-.78-.01-2.35-.02-3.13Q499.275,896.985,496.56,897Zm-.01,13.48c.01.8.01,2.39.01,3.18-.79,0-2.37.01-3.16.01-.01,1.79-.01,3.61,0,5.43.79,0,2.37.01,3.17.02-.01.8-.01,2.41-.01,3.21,1.87-.01,3.75-.01,5.63,0,0-.78.01-2.35.01-3.13.77-.01,2.3-.01,3.07-.01,0-1.85-.01-3.68,0-5.5-.81-.01-2.43-.02-3.24-.02-.03-1.09-.05-2.16-.06-3.22C500.16,910.45,498.35,910.46,496.55,910.48Zm.01,13.19v3.05c-.79,0-2.37.01-3.16.01-.01,1.81-.01,3.63,0,5.45.79.01,2.37.03,3.17.03-.01.81-.01,2.42-.01,3.23,1.87-.01,3.74-.01,5.62,0l.04-3.12c.77-.02,2.29-.06,3.05-.07v-5.42c-.8-.02-2.41-.05-3.22-.07-.02-.78-.06-2.32-.08-3.1C500.16,923.66,498.36,923.65,496.56,923.67Zm.01,15.14c-.01,1.05-.02,2.11-.02,3.19h-3.16c0,1.8,0,3.61.01,5.44h3.16v3.22c1.87-.01,3.75-.01,5.63,0,0-.78.01-2.36.02-3.14.76,0,2.3.01,3.06.01-.01-1.85-.01-3.68-.01-5.5l-3.26-.04c0-.8,0-2.39-.01-3.19C500.18,938.79,498.37,938.79,496.57,938.81Zm-.01,13c0,.76.01,2.29.01,3.06-1.07,0-2.13.02-3.18.05,0,1.79,0,3.59.01,5.41.79,0,2.36.01,3.15.01.01.82.01,2.47.01,3.29,1.89-.04,3.78-.06,5.68-.08-.01-.76-.04-2.29-.05-3.05.77-.02,2.31-.07,3.08-.09-.01-1.81,0-3.59.01-5.37l-3.26-.16-.04-3.08C500.17,951.79,498.36,951.79,496.56,951.81Zm.01,12.92c-.01.78-.02,2.33-.02,3.11-.77-.03-2.31-.08-3.09-.11-.04,1.85-.06,3.72-.09,5.6.79,0,2.39.01,3.19.02v3.24c1.84.01,3.69.02,5.54.05.04-1.07.08-2.12.13-3.16.76-.04,2.28-.13,3.04-.17V967.9c-.81,0-2.44-.01-3.26-.01,0-.79-.01-2.37-.02-3.16C500.18,964.72,498.37,964.71,496.57,964.73Zm-.01,12.94v3.12c-.79.01-2.37.02-3.16.03-.01,1.8-.01,3.61,0,5.44.79.01,2.37.02,3.17.02-.01.81-.01,2.44-.01,3.25,1.87-.01,3.75-.01,5.63,0,0-.8.01-2.4.01-3.2h3.07v-5.52h-3.26c0-.79-.02-2.36-.02-3.15C500.17,977.66,498.36,977.65,496.56,977.67Zm0,12.89v3.16c-.79,0-2.37.01-3.16.02-.01,1.8-.01,3.62,0,5.45.79,0,2.37.01,3.16.02v3.23c1.87-.01,3.75-.01,5.63,0,0-.79.01-2.38.01-3.17h3.07c-.01-1.83,0-3.65,0-5.45L502,993.7c0-.79,0-2.36-.01-3.14C500.18,990.55,498.37,990.54,496.56,990.56Zm0,13v3.1c-.79,0-2.37.01-3.16.01-.01,1.79-.01,3.6,0,5.42.79.01,2.37.03,3.17.03,0,.81-.01,2.41-.01,3.21,1.87-.01,3.74-.01,5.62,0,.01-.76.03-2.29.03-3.05l3.06-.12v-5.42l-3.23-.04c-.02-.78-.05-2.36-.06-3.15C500.17,1003.55,498.36,1003.55,496.56,1003.56Zm0,12.91v3.19c-.79,0-2.36,0-3.15.01-.01,1.79-.02,3.59-.02,5.4,1.05.01,2.11.03,3.18.07,0,.8-.01,2.39-.01,3.19q2.805-.015,5.64,0c-.01-.78-.01-2.33-.01-3.11.77-.02,2.31-.05,3.08-.07v-5.48h-3.25c-.01-.8-.03-2.4-.04-3.21C500.17,1016.46,498.36,1016.45,496.56,1016.47Z" transform="translate(169.872 42.167)"/><path class="cls-2" d="M161.75,843.37c6.1-.07,12.19-.02,18.29-.04-.08,54.93.04,109.87-.15,164.81q-9.06-.015-18.12-.01Q161.755,925.75,161.75,843.37Z" transform="translate(169.872 42.167)"/><path class="cls-2" d="M190.52,843.35c6.07-.03,12.14-.01,18.21-.02.05,54.94-.07,109.87-.06,164.8-6.05.01-12.09,0-18.14.01Q190.515,925.745,190.52,843.35Z" transform="translate(169.872 42.167)"/><path class="cls-2" d="M745.27,845.2c6.06-.01,12.13,0,18.19-.01.07,54.9-.11,109.8-.07,164.71q-9.06-.015-18.12-.01Z" transform="translate(169.872 42.167)"/><path class="cls-2" d="M773.94,845.2q9.135-.015,18.29,0-.06,82.335-.09,164.69h-18.2Z" transform="translate(169.872 42.167)"/><path class="cls-2" d="M268.67,997.61H272v17.53c-.83,0-2.5-.01-3.33-.01Q268.655,1006.37,268.67,997.61Z" transform="translate(169.872 42.167)"/><ellipse class="cls-2" cx="346.342" cy="1113.667" rx="9.232" ry="21.063"/><path class="cls-2" d="M770.27,1058.01q5.73-.03,11.48-.01c-.02,10.16-.2,20.31-.3,30.47-3.74-.01-7.47,0-11.2-.03C770.29,1078.3,770.27,1068.15,770.27,1058.01Z" transform="translate(169.872 42.167)"/><path class="cls-2" d="M187.66,1089.54c3.72-.01,7.43-.01,11.14-.02q0,8.88.01,17.76c-3.05.3-6.1.66-9.12,1.17q4.545-.2,9.11-.21v3.44c6.55-.06,13.11-.2,19.66-.37.01,3.67.01,7.35.02,11.03q257.385-.015,514.79-.01,0-4.845.01-9.68c6.8.03,13.59.01,20.39.02q-.015-10.575,0-21.13,5.9-.03,11.8-.01c.05,7.67-.11,15.34-.07,23.01,1.47-.02,2.95-.04,4.44-.04.03-7.69.13-15.37.17-23.06,3.79-.01,7.59-.02,11.38.04,0,5.59-.03,11.19-.14,16.78q9.87.015,19.74.01.015,20.805.01,41.63-325.23-.015-650.46,0c-.04-13.86.05-27.71-.06-41.56,6.49-.14,12.97-.05,19.46-.07v-18.74H183c0,7.38-.01,14.76.01,22.14,1.55-.02,3.1-.02,4.66-.01C187.66,1104.28,187.67,1096.91,187.66,1089.54Z" transform="translate(169.872 42.167)"/><path class="cls-2" d="M141.166,74.872q56.221,0,112.45.014.019,27.377.006,54.746a35.432,35.432,0,0,0,.192,5.9c5.374,15.362,10.906,30.676,16.149,46.086-17.422.1-34.852.007-52.274.041-5.833-16.546-11.57-33.127-17.43-49.659-.109-1.205-1.4-1-2.279-1.089a35.8,35.8,0,0,0-4.539.2c.109,16.848.027,33.7.041,50.543q-26.154-.011-52.316,0Q141.187,128.263,141.166,74.872Z" transform="translate(169.872 42.167)"/><path class="cls-2" d="M276.5,74.879c29.855.021,59.716-.109,89.571.069,8.146,25.1,16.717,50.063,24.987,75.119a70.622,70.622,0,0,1,2.471,7.975c.11,0,.336.007.452.014.281,1.369.609,2.731.917,4.107.117,0,.356.007.473.014.274,1.376.595,2.752.9,4.135.1-.021.314-.062.424-.082.431,2.1,1.164,4.121,1.629,6.216.11-.007.336-.014.445-.021.575,3.19,1.91,6.161,2.9,9.235-17.5-.048-35,.082-52.494-.068-4.093-12.925-8.769-25.672-12.678-38.645l-.431.055c-.26-1.417-.575-2.814-.9-4.21l-.479.1c-.425-3.094-1.814-5.928-2.677-8.906-1.02-2.67-1.472-5.573-2.951-8.051-.2,19.894-.048,39.8-.068,59.689-17.5.075-35.01.007-52.507.034Q276.521,128.273,276.5,74.879Z" transform="translate(169.872 42.167)"/><path class="cls-2" d="M409.344,74.907c29.013-.021,58.032-.165,87.045.075,2.464,7.907,5.709,15.553,8.064,23.5l.4.028a59.008,59.008,0,0,0,2.43,7.537q8.154,22.941,16.314,45.874c.732,1.752.91,3.8,2.211,5.271,9.516-26.767,19.093-53.507,28.5-80.315.4-.726.342-2.286,1.595-1.985,17.169-.028,34.345-.082,51.515.034.185,4.327.013,8.66-.082,12.987.513,5.024-.363,10.042.137,15.06-.048,26.2.006,52.4.02,78.6-17.491.185-34.975.027-52.466.082q.011-27.438-.007-54.883a10.406,10.406,0,0,0-.883,1.486c-6.422,17.806-12.952,35.571-19.4,53.363q-26.329.083-52.665.007c-5.408-14.842-10.775-29.7-16.225-44.525-1.424-3.41-2.156-7.127-4.039-10.324-.054,18.292-.006,36.584-.02,54.876-17.491-.034-34.982.055-52.473-.041Q409.357,128.262,409.344,74.907Z" transform="translate(169.872 42.167)"/><path class="cls-2" d="M615.074,74.927c28.951-.13,57.9-.048,86.86-.041q12.158,34.4,24.405,68.78a50.432,50.432,0,0,1,1.965,6.141c.1,0,.294.006.39.013a61.864,61.864,0,0,0,2.246,7.031c.171.007.506.014.677.02,9.646-27.342,19.436-54.643,29.068-81.992,17.457-.034,34.907,0,52.356-.014q.042,53.4.014,106.8c-17.491-.02-34.982.027-52.473-.02-.062-18.286.164-36.584-.109-54.863-6.915,18.169-13.357,36.625-20.127,54.89-17.58-.1-35.167.157-52.733-.13-3.389-9.831-7.093-19.545-10.591-29.334a54.762,54.762,0,0,1-2.362-7.2c-.109.013-.328.034-.431.041-1.6-5.812-4.2-11.289-5.853-17.08-.281-.048-.849-.137-1.13-.185.343,17.943-.027,35.9.192,53.842-17.457.055-34.921.082-52.377-.014Q615.224,128.27,615.074,74.927Z" transform="translate(169.872 42.167)"/><path class="cls-2" d="M140.283,190.621q71.778-.174,143.564-.02c.041,17.4,0,34.8.02,52.2-.212.178-.636.548-.849.726-29.971.048-59.942-.055-89.913.048,2.15,1.218,4.615,1.526,6.97,2.122,27.9,7.653,55.889,15,83.751,22.776.1,17.388-.02,34.776.062,52.158q-71.8-.021-143.6-.014,0-24.984-.007-49.974a5.934,5.934,0,0,1,.521-2.437c25.911.26,51.829.041,77.748.109,4.306.1,8.666-.315,12.924.548a5.017,5.017,0,0,0-2.669-1.479q-41.066-11.049-82.109-22.166c-2.013-.582-4.046-1.109-6.1-1.527a36.766,36.766,0,0,1-.3-7.257Q140.279,213.524,140.283,190.621Z" transform="translate(169.872 42.167)"/><path class="cls-2" d="M326.859,193.318c.109-.855-.13-1.827.4-2.56.1,9.064.041,18.121.061,27.185a38.642,38.642,0,0,0,.219,6.647c.76-.541.35-1.752.528-2.54-.048-7.756-.014-15.519-.028-23.282-.02-2.78.206-5.6-.438-8.332,20.743.3,41.506,0,62.256.151q.01,17.087,0,34.181l-.034.431c11.377,0,22.762-.13,34.14.062.1,20.448.048,40.9.027,61.345-11.4.26-22.81.055-34.215.1,0,11.323-.226,22.66.1,33.976-19.229-.137-38.466-.007-57.7-.069a35.292,35.292,0,0,0-4.409.192c.124-11.391.11-22.783.021-34.174-11.385-.055-22.762.068-34.147-.069q-.174-30.642-.014-61.277c11-.13,22.044.3,33.011-.2a4.189,4.189,0,0,0-2.033-.425c-10.557-.054-21.12.055-31.676-.068,10.83-.144,21.674.308,32.483-.294,1.294.143,1.527-1.253,1.424-2.212C326.811,212.5,326.77,202.909,326.859,193.318Z" transform="translate(169.872 42.167)"/><path class="cls-2" d="M433.818,190.436c35.475.288,70.97.041,106.459.124,12.172-.062,24.344.13,36.516-.1-.144,16.526,0,33.065-.069,49.6-26.952.116-53.9.027-80.856.048a48.569,48.569,0,0,0,0,10.549q29.728-.051,59.463-.014c3.95.035,7.941-.267,11.857.479-11.063,3.026-22.044,6.367-33.059,9.557-12.856-.322-25.8-.02-38.678-.191.109,3.532-.555,7.119-.178,10.7l.5.136.623.144c26.774.26,53.569.062,80.357.1.1,16.4-.1,32.792.1,49.187-38.213-.287-76.447-.041-114.667-.123-9.468.082-18.935-.171-28.4.13C433.921,277.323,433.845,233.88,433.818,190.436Z" transform="translate(169.872 42.167)"/><path class="cls-2" d="M586.322,190.642q31.967-.195,63.947.007c-.144,33.962-.021,67.924-.062,101.879.055,9.344-.116,18.689.089,28.027-21.332.15-42.67.075-64,.041Q586.531,255.614,586.322,190.642Z" transform="translate(169.872 42.167)"/><path class="cls-2" d="M659.6,190.676c28.219-.274,56.444-.041,84.663-.116,7.133.061,14.266-.124,21.393.089,9.112,26.39,17.9,52.9,27.054,79.281.808,1.917.664,4.409,2.424,5.791.287-18.784.041-37.59.123-56.382-.055-9.543.1-19.093-.082-28.642,5.839-.3,11.686-.083,17.532-.124q-.051,65.033,0,130.057c-21.468-.055-42.951.1-64.419-.075q-11.687-31.7-23.118-63.5c-.226-.979-.459-1.937-.664-2.9-.295-.109-.877-.328-1.164-.438.239,22.283-.055,44.573.15,66.85q-31.946.184-63.9.013c.219-26.445.027-52.9.1-79.35C659.627,224.378,659.784,207.524,659.6,190.676Z" transform="translate(169.872 42.167)"/><path class="cls-2" d="M293.109,287.216c11.371-.062,22.735-.117,34.106.013.041,11.063-.123,22.126.1,33.182-.384-11.022-.062-22.078-.165-33.106C315.8,287.216,304.453,287.4,293.109,287.216Z" transform="translate(169.872 42.167)"/><path class="cls-2" d="M273.261,357.971q1.6-.053,3.2,0c1.3.734,2.811.609,4.238.713,1.565.8,3.171,1.53,4.653,2.486a22.732,22.732,0,0,1,3.989,4.722c.027.34.083,1.011.111,1.351.422.685.851,1.364,1.274,2.056.055.887.117,1.773.2,2.666,1.067,2.555.388,5.4.548,8.081-.174,3.6.45,7.278-.4,10.824-.3.907-.554,1.835-.79,2.769-.076.319-.228.963-.3,1.281a16.693,16.693,0,0,1-8.566,8.573c-.658.076-1.309.166-1.953.263a14.443,14.443,0,0,1-8.531.007c-.651-.1-1.3-.187-1.953-.27a15.878,15.878,0,0,1-8.171-7.915q-.54-1.028-1.1-2.042c-.083-.651-.166-1.309-.256-1.953-1.046-2.791-.346-5.845-.526-8.753.194-3.836-.457-7.749.394-11.529.312-.915.568-1.842.8-2.77.076-.319.221-.963.3-1.281a13.655,13.655,0,0,1,7.209-7.479c.679-.36,1.357-.713,2.043-1.073A9.113,9.113,0,0,0,273.261,357.971Zm-.928,5.962c-.333.062-1,.173-1.337.228a13.208,13.208,0,0,0-5.1,5.1c-.062.332-.18,1-.236,1.336-.567,1.648-.394,3.456-1.073,5.076a100.836,100.836,0,0,0,0,10.83c.679,1.614.519,3.421,1.06,5.076.076.325.221.969.29,1.295.714,1.2,1.489,2.361,2.251,3.538,1.184.762,2.361,1.544,3.559,2.3,2.334-.021,4.785.409,7.029-.478.332-.055.99-.173,1.322-.228a24.162,24.162,0,0,0,4.418-5.09c.056-.332.159-1,.215-1.336,1.156-2.486-.173-5.394,1.087-7.839.09-2.077.526-4.314-.471-6.246-.145-2.07.146-4.217-.588-6.2-.077-.319-.236-.956-.319-1.275a10.672,10.672,0,0,0-5.041-5.858l-1.323-.221A7.385,7.385,0,0,0,272.333,363.933Z" transform="translate(169.872 42.167)"/><path class="cls-2" d="M403.894,358.351a8.564,8.564,0,0,1,4.141-.373c1.593.678,3.351.657,5.034.969.686.3,1.378.6,2.064.921l1.392.111c1.059.741,2.118,1.5,3.164,2.278-.194,1.336.319,3.054-1.073,3.885a6.025,6.025,0,0,1-3.636-.444c-.318-.069-.962-.214-1.288-.283-.685-.4-1.371-.8-2.049-1.191a8.851,8.851,0,0,1-3.6-.7,9.462,9.462,0,0,0-4.834.409c-.332.062-.99.173-1.322.235a8.113,8.113,0,0,0-3.726,3.719c-.055.332-.152.99-.207,1.322a2.758,2.758,0,0,0-.028,2.978c.076.311.228.949.305,1.26.194.374.588,1.122.782,1.5,1.2.748,2.382,1.523,3.6,2.257.651.076,1.309.153,1.967.243,1.648.554,3.406.533,5.075.976a32.6,32.6,0,0,1,3.449.727c.318.083.955.236,1.274.319a14.753,14.753,0,0,1,7.929,7.894c-.056,2.548.484,5.228-.464,7.679-.056.333-.16,1-.215,1.337a14.039,14.039,0,0,1-6.585,6.024q-1.029.54-2.05,1.1c-.651.076-1.309.159-1.953.256a21.6,21.6,0,0,1-9.9.125c-.914-.3-1.842-.568-2.77-.8-.325-.07-.962-.215-1.288-.291-.679-.367-1.364-.734-2.043-1.087a13.314,13.314,0,0,1-4.591-3.241c.035-.353.09-1.067.125-1.427.2-.387.609-1.163.817-1.558.4-.207,1.177-.623,1.565-.831.339-.013,1.011-.041,1.343-.048,1.337.914,2.722,1.766,4.107,2.611.727.228,1.461.436,2.209.63.3.11.914.339,1.218.45a18.628,18.628,0,0,0,9.2-.035c.305-.076.914-.242,1.219-.325a16.694,16.694,0,0,0,2.174-1.586,19.9,19.9,0,0,0,1.607-2.174c.062-.637.145-1.268.242-1.9a1.827,1.827,0,0,0-.027-2.306c-.056-.692-.1-1.385-.132-2.07a22.423,22.423,0,0,0-3.746-2.971c-.333-.055-1-.166-1.337-.221-1.648-.527-3.4-.52-5.062-.956a23.4,23.4,0,0,1-3.462-.762c-.658-.1-1.309-.187-1.96-.27-.678-.367-1.364-.734-2.042-1.094a11.541,11.541,0,0,1-5.893-5.339c-.049-.332-.16-1-.215-1.329a12.8,12.8,0,0,1-.014-7.825c.063-.326.2-.976.27-1.3a13.545,13.545,0,0,1,6.482-6.481l1.3-.277A27.7,27.7,0,0,1,403.894,358.351Z" transform="translate(169.872 42.167)"/><path class="cls-2" d="M710.648,358.441a7.313,7.313,0,0,1,4.148-.47c1.295.747,2.819.6,4.266.7q1.008.55,2.05,1.1c2.991,1.011,4.833,3.649,6.557,6.121l.111,1.351c.422.678.845,1.371,1.274,2.056.049.887.111,1.773.2,2.666,1.073,2.555.381,5.415.547,8.1-.173,3.594.45,7.264-.395,10.8-.3.907-.561,1.835-.789,2.769-.076.326-.222.963-.3,1.281a16.668,16.668,0,0,1-8.566,8.573c-.664.083-1.315.166-1.952.27a14.617,14.617,0,0,1-8.532,0c-.657-.1-1.308-.187-1.952-.27a17.671,17.671,0,0,1-9.245-9.978q-.156-.976-.291-1.932c-1.031-2.819-.339-5.879-.519-8.8.187-3.823-.45-7.721.395-11.481.3-.915.554-1.842.8-2.77.069-.319.215-.963.291-1.281a13.6,13.6,0,0,1,7.215-7.479c.679-.367,1.358-.741,2.043-1.108C708.883,358.587,709.762,358.518,710.648,358.441Zm.014,5.5c-.332.055-1,.166-1.329.214a13.239,13.239,0,0,0-5.1,5.1c-.055.332-.18,1-.235,1.336-.575,1.648-.381,3.463-1.073,5.076a100.706,100.706,0,0,0,0,10.823c.664,1.621.519,3.428,1.066,5.083.069.325.208.969.284,1.295.713,1.2,1.489,2.361,2.243,3.538,1.191.762,2.362,1.551,3.56,2.306,2.34-.028,4.792.4,7.035-.478.332-.062,1-.18,1.33-.235a24.36,24.36,0,0,0,4.411-5.09l.221-1.336c.859-2.2.388-4.605.6-6.9,1.011-1.925.561-4.169.477-6.232-1.149-2.237-.062-4.875-1.059-7.153-.083-.312-.235-.949-.319-1.268a10.65,10.65,0,0,0-5.041-5.851c-.325-.062-.99-.173-1.322-.235A7.387,7.387,0,0,0,710.662,363.94Z" transform="translate(169.872 42.167)"/><path class="cls-2" d="M143.59,358.566q11.82.031,23.641,0a27.637,27.637,0,0,1,2.326,1.683c.1,1.309.5,3.033-.921,3.795-6.966.27-13.953-.118-20.912.152-1.323.678-.921,2.195-1,3.407q.042,5.182.028,10.366c5.671-.007,11.342.021,17.013-.014,1.254.81,2.68,1.683,2.936,3.3a6.321,6.321,0,0,1-1.537,2.181c-5.65.25-11.308-.062-16.958.1a1.665,1.665,0,0,0-1.461,2c-.035,4.175.034,8.344.007,12.519h21.154l1.7,1.7v2.147c-.568.56-1.129,1.128-1.69,1.7h-25c-.561-.568-1.128-1.136-1.7-1.7q0-20.286-.007-40.565C140.869,359.792,142.69,359.383,143.59,358.566Z" transform="translate(169.872 42.167)"/><path class="cls-2" d="M178.878,358.663c.949-.118,1.9-.111,2.86-.138q.852.882,1.717,1.765c-.014,9.577.028,19.161-.028,28.745a8.047,8.047,0,0,0,.534,3.233c.055.333.173,1,.235,1.33,1.156,2.486,3.462,4,5.879,5.1,2.327,0,4.75.4,6.987-.436.3-.083.914-.242,1.219-.325.768-.492,1.516-1.011,2.236-1.572.755-1.164,1.558-2.292,2.258-3.49.069-.665.145-1.323.228-1.981a7.439,7.439,0,0,0,.561-3.268c-.055-9.12-.014-18.233-.027-27.345.567-.568,1.128-1.136,1.7-1.7.713-.007,1.434-.007,2.147,0l1.7,1.7c.014,10.061-.027,20.122.028,30.177a8.365,8.365,0,0,1-.519,3.192c-.077.319-.229.963-.305,1.281a29.751,29.751,0,0,1-3.262,5.312,31.179,31.179,0,0,1-5.3,3.261c-.658.076-1.309.166-1.96.256a17.726,17.726,0,0,1-9.2.063c-.312-.1-.928-.312-1.233-.416-.713-.235-1.426-.464-2.147-.678-2.95-1.545-4.937-4.218-6.5-7.077-.062-.326-.194-.977-.256-1.3-.789-1.981-.45-4.141-.609-6.2-1.15-2.52-.4-5.38-.589-8.046.2-6.392-.422-12.832.325-19.181C177.95,360.145,178.144,359.2,178.878,358.663Z" transform="translate(169.872 42.167)"/><path class="cls-2" d="M222.531,358.566c4.051.021,8.1.028,12.153-.014a8.348,8.348,0,0,1,3.947.589c1.1.083,2.209.138,3.317.2.678.374,1.364.748,2.049,1.121a11.5,11.5,0,0,1,5.893,5.332c.055.333.173,1,.229,1.337a17.264,17.264,0,0,1-.007,9.21c-.056.332-.167,1-.222,1.336a12.058,12.058,0,0,1-7.762,6c.893.554,1.024,2.077,1.779,2.97.319.672.651,1.344,1,2.009.686,1.391,1.371,2.783,2.071,4.175.173.339.526,1.025.7,1.364.893,1.925,1.87,3.816,2.943,5.651-.111,1.267.471,2.929-.962,3.642-.984.132-1.974.139-2.957.194a40.928,40.928,0,0,1-3.539-5.221c-.554-1.2-1.135-2.389-1.7-3.58-.353-.665-.706-1.323-1.06-1.981-.339-.727-.678-1.447-1.018-2.174-.588-1.122-1.17-2.25-1.758-3.365-.354-.831-.714-1.648-1.06-2.472H225.7c-.069,5.906.132,11.827-.076,17.727-.948,1.606-3,.775-4.522,1-.221-.457-.671-1.364-.893-1.814-.111-13.51-.021-27.013-.048-40.516C219.83,359.764,221.658,359.376,222.531,358.566Zm3.241,6.523c-.146,4.425-.146,8.871,0,13.3,1.017,1.648,3.171.762,4.764.984,2.908-.229,5.99.54,8.78-.561.672-.069,1.35-.125,2.036-.173a24.058,24.058,0,0,0,3.746-4.425q-.041-2.472,0-4.944a24.034,24.034,0,0,0-3.746-4.425c-.686-.056-1.364-.111-2.036-.173-2.77-1.094-5.83-.34-8.718-.561C228.992,364.327,226.8,363.427,225.772,365.089Z" transform="translate(169.872 42.167)"/><path class="cls-2" d="M303.549,358.566c4.044.021,8.1.028,12.139-.014a8.49,8.49,0,0,1,3.961.582c1.094.1,2.188.159,3.289.222,2.735,1.412,5.99,2.589,7.153,5.74.492.97.99,1.932,1.489,2.9-.062,3.006.54,6.129-.429,9.037-.07.312-.222.942-.3,1.253a15.018,15.018,0,0,1-7.188,6.51c-.658.083-1.309.166-1.953.263a11,11,0,0,1-4.625.554c-3.456-.056-6.918-.021-10.373-.028-.077,5.678.138,11.363-.077,17.035-.955,1.6-3,.775-4.514,1-.229-.457-.679-1.364-.9-1.814-.11-13.5-.02-26.986-.048-40.482C300.835,359.785,302.656,359.376,303.549,358.566Zm3.241,6.523c-.222,4.979,0,9.972-.076,14.957,4.75-.311,9.666.651,14.306-.512.332-.055,1.011-.166,1.35-.215a23.948,23.948,0,0,0,3.746-4.418c-.041-1.9.257-3.905-.54-5.7-.041-.346-.131-1.038-.18-1.385a22.645,22.645,0,0,0-3.732-2.977c-.679-.056-1.357-.111-2.029-.173-2.77-1.094-5.837-.34-8.739-.568C309.5,364.258,307.628,363.566,306.79,365.089Z" transform="translate(169.872 42.167)"/><path class="cls-2" d="M342.334,358.566q11.81.031,23.634,0a27.208,27.208,0,0,1,2.326,1.683c.1,1.309.5,3.033-.921,3.795-6.966.27-13.953-.118-20.912.152l-.893.893c-.222,4.286,0,8.587-.076,12.88,5.671-.007,11.342.021,17.013-.014,1.136.776,2.438,1.51,2.881,2.908a4.01,4.01,0,0,1-1.482,2.569c-5.81.277-11.633-.131-17.443.153l-.893.893c-.222,4.515,0,9.051-.076,13.572h21.154l1.7,1.7v2.147c-.568.56-1.136,1.128-1.7,1.7h-25l-1.7-1.7V361.3C339.62,359.778,341.441,359.376,342.334,358.566Z" transform="translate(169.872 42.167)"/><path class="cls-2" d="M429.577,358.566q13.9.031,27.8,0c.775.547,1.593,1.046,2.32,1.676.1,1.309.5,3.04-.914,3.8-4.058.228-8.13-.007-12.188.076v37.774c-.568.56-1.135,1.128-1.7,1.7q-1.423-.01-2.846,0c-.561-.575-1.129-1.136-1.69-1.7V364.12c-4.065-.083-8.129.152-12.187-.076-1.067-.548-1.115-1.69-1.018-2.743C426.856,359.771,428.691,359.39,429.577,358.566Z" transform="translate(169.872 42.167)"/><path class="cls-2" d="M473.784,358.538c.991.014,1.988.028,2.992.035a7.969,7.969,0,0,1,3.04,3.061l.138,1.385q.394,1.048.769,2.119c.36.934.685,1.883,1.025,2.839l.332,1.274c.229.72.457,1.447.686,2.174.38.679.761,1.364,1.135,2.057l.194,1.329c.388.942.748,1.9,1.15,2.839.069.326.221.97.29,1.3.229.72.457,1.448.693,2.175q.571,1.006,1.122,2.056c.062.326.187.984.242,1.309.249.7.5,1.406.741,2.119.374.935.706,1.89,1.059,2.846.049.332.153,1,.2,1.343.409.679.824,1.365,1.247,2.05.048.339.152,1,.2,1.337.263.7.526,1.4.789,2.105.325.934.582,1.9.893,2.846.263.6.526,1.2.776,1.807.831.956-1,1.233-1.143,2.112-.678.99-2.174.367-3.2.6-.561-.595-1.122-1.177-1.676-1.758-.041-.34-.111-1.025-.145-1.365-.374-.948-.72-1.9-1.108-2.832-.194-.713-.381-1.426-.575-2.126-.415-.831-.533-2.4-1.745-2.347-5.9-.09-11.806.021-17.706-.028-.27.824-.513,1.662-.713,2.514-.09.311-.264.942-.354,1.253-.283.686-.547,1.378-.8,2.085-.194.72-.374,1.447-.533,2.174a14.056,14.056,0,0,1-1.551,2.306c-1.2.111-2.41.062-3.608.09-.256-.471-.775-1.42-1.032-1.891.16-.664.333-1.329.513-1.987q.332-1.048.706-2.077c.256-.7.519-1.4.79-2.092.048-.339.152-1,.2-1.336.409-.693.831-1.378,1.247-2.057.048-.339.145-1.011.194-1.343.277-.7.554-1.392.817-2.091.214-.707.415-1.42.6-2.126.34-.693.693-1.378,1.046-2.057.228-.72.464-1.44.706-2.153.076-.319.236-.956.312-1.274.277-.693.54-1.385.8-2.085.208-.713.4-1.433.589-2.153.381-.686.775-1.365,1.163-2.05.048-.332.139-1,.18-1.343.4-.942.769-1.9,1.17-2.84.049-.332.146-1,.194-1.336q.55-1.038,1.143-2.057c.214-.727.436-1.454.665-2.174.1-.312.29-.942.38-1.253.208-.741.416-1.475.624-2.216A27.93,27.93,0,0,1,473.784,358.538Zm1.427,9.73c-.2.443-.6,1.329-.8,1.772-.069.326-.214.97-.283,1.295-.25.7-.492,1.406-.728,2.112-.38.935-.713,1.891-1.059,2.846-.048.333-.145,1-.2,1.344-.415.678-.838,1.364-1.246,2.049-.049.34-.153,1-.2,1.344-.277.692-.533,1.391-.789,2.091s-.5,1.371-.714,2.07c-.194.824-.408,1.641-.644,2.459,4.758.02,9.508.027,14.265-.007-.194-.437-.589-1.309-.782-1.745-.07-.326-.2-.977-.27-1.3-.271-.693-.534-1.392-.776-2.084s-.471-1.392-.693-2.085-.429-1.419-.63-2.126c-.353-.685-.706-1.371-1.059-2.049-.194-.721-.395-1.427-.61-2.133-.249-.7-.512-1.4-.775-2.084-.09-.312-.27-.942-.36-1.254-.208-.852-.45-1.689-.72-2.513Z" transform="translate(169.872 42.167)"/><path class="cls-2" d="M503.671,358.566c4.363.09,8.725-.131,13.081.132,1.613.678,3.407.533,5.075,1.045l1.268.333a17.91,17.91,0,0,1,7.963,7.1c.028.347.083,1.046.111,1.392.3.686.609,1.371.921,2.064.761,3.538.207,7.188.367,10.781-.139,3.366.374,6.793-.367,10.117-.305.686-.61,1.371-.914,2.064-.042.339-.118,1.018-.16,1.357-1.565,2.41-2.929,5.263-5.768,6.4-.962.471-1.918.956-2.88,1.42-.644.09-1.288.187-1.919.3a11.243,11.243,0,0,1-4.625.547c-4.28-.063-8.559-.014-12.832-.028l-1.7-1.7q0-20.3,0-40.6C500.964,359.771,502.792,359.376,503.671,358.566Zm4.134,5.63-.893.893c-.187,10.983-.021,21.972-.076,32.961,4.286-.29,8.732.624,12.914-.5.332-.062.99-.173,1.323-.236a10.277,10.277,0,0,0,4.411-4.411c.062-.332.18-.99.235-1.322a28.232,28.232,0,0,0,.741-3.456c.852-2.589.332-5.352.464-8.018-.062-2.022.319-4.155-.554-6.059-.1-.88-.166-1.759-.229-2.632a13.094,13.094,0,0,0-5.747-6.571c-.907-.049-1.814-.09-2.707-.153C514.55,363.559,511.073,364.23,507.805,364.2Z" transform="translate(169.872 42.167)"/><path class="cls-2" d="M543.869,358.525c1.329.1,3.607-.374,3.794,1.5q.073,21.065,0,42.137c-.367,2.139-3.04,1.253-4.57,1.454-.222-.457-.672-1.364-.893-1.814-.111-13.843-.014-27.678-.049-41.521C542.719,359.7,543.294,359.106,543.869,358.525Z" transform="translate(169.872 42.167)"/><path class="cls-2" d="M559.733,358.663c.942-.118,1.9-.111,2.86-.138.568.588,1.135,1.177,1.717,1.758-.014,9.591.028,19.182-.028,28.779a7.958,7.958,0,0,0,.534,3.206c.055.333.173,1,.235,1.33,1.156,2.479,3.455,4,5.872,5.1,2.327,0,4.75.395,6.994-.429l1.219-.332c.768-.492,1.516-1.011,2.236-1.572.748-1.164,1.558-2.292,2.258-3.49.062-.665.138-1.323.228-1.981.755-1.669.527-3.531.554-5.3-.048-8.441-.007-16.882-.02-25.316.56-.568,1.128-1.136,1.7-1.7h2.147c.561.561,1.121,1.129,1.7,1.7.007,9.112-.014,18.232.014,27.352-.041,2.008.249,4.1-.5,6.024-.077.319-.236.956-.312,1.274a30.069,30.069,0,0,1-3.255,5.305,31.1,31.1,0,0,1-5.3,3.268c-.665.076-1.316.159-1.96.256-2.936.956-6.176.672-9.175.153-.692-.3-1.378-.6-2.056-.9l-1.3-.193a17.179,17.179,0,0,1-6.544-7.167c-.069-.326-.2-.977-.27-1.3-1.046-2.272.1-4.931-1.087-7.153-.236-5.609-.049-11.232-.1-16.841.09-3.144-.3-6.329.332-9.438C558.812,360.145,558.992,359.2,559.733,358.663Z" transform="translate(169.872 42.167)"/><path class="cls-2" d="M602.707,358.58c.942-.007,1.884-.007,2.839,0,.783.8,1.572,1.593,2.369,2.382.02.353.062,1.053.083,1.406.2.36.609,1.08.81,1.44.6,1.15,1.191,2.313,1.8,3.462.049.333.146.991.194,1.323.838,1.641,1.731,3.261,2.576,4.9.049.332.145,1,.194,1.322.838,1.648,1.731,3.269,2.569,4.917.055.325.159.983.215,1.308.464.956.955,1.912,1.468,2.86.36.679.734,1.358,1.108,2.043.048.333.138,1,.187,1.337.207.443.616,1.329.824,1.772.221-.007.651-.014.865-.014.526-1.052,1.046-2.112,1.544-3.171.056-.326.16-.983.208-1.309.644-1.163,1.26-2.34,1.918-3.5.035-.332.111-1.011.153-1.35.644-1.156,1.267-2.334,1.918-3.49.048-.332.131-1,.18-1.337.838-1.648,1.731-3.268,2.583-4.916.041-.332.124-1,.173-1.33.644-1.17,1.26-2.34,1.918-3.5.034-.34.118-1.018.152-1.358a17.362,17.362,0,0,1,3.649-5.249c.7.028,1.406.063,2.126.1.388.208,1.164.63,1.551.838.222.388.651,1.17.873,1.565.083,13.614.007,27.228.035,40.842-.582.581-1.15,1.17-1.718,1.758-1.336-.1-3.587.374-3.794-1.481-.077-10.145,0-20.3-.028-30.441l-.464.028c-.2.436-.616,1.315-.817,1.758-.049.333-.139,1-.187,1.33-.2.36-.589,1.08-.79,1.44-.609,1.15-1.2,2.306-1.8,3.456-.041.332-.132,1-.173,1.343-.388.672-.762,1.35-1.136,2.029-.685,1.433-1.4,2.846-2.146,4.245-.056.332-.153.99-.2,1.322-.61,1.143-1.2,2.306-1.821,3.449-.16.353-.471,1.059-.624,1.406a18.283,18.283,0,0,1-2.513,3.9c-.734-.048-1.461-.1-2.181-.138-.388-.208-1.178-.624-1.565-.831-.693-1.461-1.413-2.909-2.175-4.328-.048-.333-.159-.99-.207-1.316q-1.632-3.158-3.255-6.3c-.055-.333-.152-.99-.208-1.316q-1.122-2.1-2.153-4.238-.561-1.027-1.122-2.036c-.056-.325-.152-.983-.208-1.315-.492-1.06-1.011-2.112-1.537-3.151l-.416-.042c-.027,9.8.063,19.59-.048,29.389-.222.45-.672,1.357-.9,1.814-1.531-.2-4.19.685-4.564-1.441-.076-13.967-.007-27.934-.027-41.9C601.572,359.709,602.139,359.148,602.707,358.58Z" transform="translate(169.872 42.167)"/><path class="cls-2" d="M663.63,358.566q13.9.031,27.789,0a26.148,26.148,0,0,1,2.326,1.683c.1,1.309.5,3.033-.914,3.795-4.058.228-8.129-.007-12.187.076v37.774c-.575.56-1.143,1.128-1.7,1.7-.955-.007-1.9-.007-2.839,0-.574-.568-1.135-1.136-1.7-1.7V364.12c-4.065-.083-8.137.152-12.188-.076a2.432,2.432,0,0,1-1.017-2.68C660.874,359.8,662.716,359.4,663.63,358.566Z" transform="translate(169.872 42.167)"/><path class="cls-2" d="M740.466,358.656c.942-.111,1.9-.1,2.867-.131.561.588,1.128,1.17,1.71,1.758-.014,9.6.028,19.2-.028,28.8a7.63,7.63,0,0,0,.54,3.185c.056.333.167.991.222,1.323,1.163,2.486,3.462,4,5.879,5.1,2.327,0,4.75.395,6.994-.429l1.219-.332c.761-.492,1.509-1.018,2.236-1.572.748-1.164,1.551-2.292,2.258-3.49.062-.665.138-1.323.228-1.981.755-1.669.527-3.531.554-5.3-.048-8.441-.007-16.875-.02-25.309.56-.568,1.121-1.136,1.7-1.7.706-.007,1.42-.007,2.147,0,.554.568,1.121,1.129,1.7,1.7.014,10.061-.034,20.122.028,30.184a8.9,8.9,0,0,1-.513,3.185c-.083.319-.242.956-.318,1.274-.367.686-.72,1.378-1.066,2.071-1.392,3.248-4.453,5.034-7.486,6.509-.665.076-1.316.159-1.96.256a17.58,17.58,0,0,1-9.2.063c-.312-.1-.928-.312-1.233-.416-.72-.235-1.433-.464-2.147-.678-2.957-1.545-4.937-4.218-6.5-7.077-.069-.326-.2-.977-.27-1.3-1.046-2.272.1-4.931-1.08-7.153-.25-5.609-.056-11.218-.111-16.827.076-3.151-.291-6.336.318-9.452C739.531,360.145,739.725,359.2,740.466,358.656Z" transform="translate(169.872 42.167)"/><path class="cls-2" d="M784.119,358.566c5.048.09,10.11-.131,15.158.125a9.978,9.978,0,0,0,4.258.665c.679.367,1.365.74,2.057,1.107a11.556,11.556,0,0,1,5.893,5.332c.055.333.159,1,.215,1.337a17.2,17.2,0,0,1,0,9.21c-.056.332-.167,1-.215,1.329a12.109,12.109,0,0,1-7.8,6.025c.893.685,1.378,2.409,2.105,3.58.443.928.921,1.849,1.392,2.77.339.72.685,1.433,1.038,2.16.582,1.122,1.157,2.251,1.752,3.379.319.72.651,1.454.991,2.188.408.679.831,1.365,1.26,2.043-.139,1.274.443,2.95-.983,3.677-.991.132-1.981.139-2.957.194a47.447,47.447,0,0,1-3.213-4.605c-.333-.685-.665-1.364-.99-2.036-.361-.72-.714-1.433-1.053-2.146-.471-.928-.942-1.842-1.4-2.763s-.914-1.863-1.364-2.784c-.36-.665-.72-1.323-1.066-1.973-.36-.831-.714-1.662-1.046-2.486H787.283c-.076,5.906.132,11.827-.076,17.727-.955,1.6-3,.775-4.515,1-.228-.457-.678-1.364-.9-1.814-.111-13.5-.021-27-.048-40.5C781.4,359.778,783.226,359.376,784.119,358.566Zm3.241,6.523c-.146,4.425-.146,8.871,0,13.3l.893.894c2.43.207,4.875.02,7.319.09,1.773-.042,3.663.249,5.332-.561.665-.069,1.343-.125,2.036-.173a24.379,24.379,0,0,0,3.746-4.432q-.051-2.472,0-4.93a24.115,24.115,0,0,0-3.753-4.432c-.686-.056-1.364-.111-2.029-.173-2.791-1.094-5.865-.34-8.773-.561C790.538,364.32,788.371,363.434,787.36,365.089Z" transform="translate(169.872 42.167)"/><polygon class="cls-2" points="359.058 1154.056 368.672 1153.847 368.679 1146.945 359.058 1146.945 359.058 1154.056"/><polygon class="cls-2" points="815.206 1120.204 812.058 1115.792 812.092 1115.407 807.282 1115.347 806.909 1116.093 809.65 1121.056 815.206 1120.204"/><polygon class="cls-2" points="785.946 1117.056 785.862 1114.507 782.372 1114.437 782.372 1116.611 785.946 1117.056"/><polygon class="cls-2" points="771.798 1117.056 771.782 1114.027 767.882 1113.927 767.882 1116.907 771.798 1117.056"/><polygon class="cls-2" points="747.576 1117.056 747.672 1113.247 743.302 1113.137 743.302 1116.463 747.576 1117.056"/></g></svg>